<svg xmlns="http://www.w3.org/2000/svg" viewBox="0 0 779.54 353.37"><title>Fichier 1</title><g id="Calque_2" data-name="Calque 2"><g id="Calque_1-2" data-name="Calque 1"><rect x="373.45" y="172.53" width="84.83" height="180.34" style="fill:#fff;stroke:#1d1d1b;stroke-miterlimit:10"/><path d="M395.21,257.57a10.91,10.91,0,0,1,2-.17,3.3,3.3,0,0,1,2.34.66,2,2,0,0,1,.64,1.54,2.12,2.12,0,0,1-1.52,2.06v0a2,2,0,0,1,1.19,1.63,12.85,12.85,0,0,0,.62,2.22H399.4a10.43,10.43,0,0,1-.54-1.93c-.24-1.12-.67-1.54-1.62-1.57h-1v3.5h-1Zm1,3.68h1.07c1.12,0,1.82-.61,1.82-1.54s-.76-1.5-1.86-1.51a4.3,4.3,0,0,0-1,.1Z" transform="translate(-0.46)" style="fill:#1d1d1b"/><path d="M406.94,262.59a2.84,2.84,0,0,1-2.89,3.08,2.76,2.76,0,0,1-2.78-3,2.83,2.83,0,0,1,2.88-3.08A2.75,2.75,0,0,1,406.94,262.59Zm-4.61.06c0,1.27.73,2.23,1.76,2.23s1.76-.95,1.76-2.25c0-1-.49-2.23-1.74-2.23S402.33,261.55,402.33,262.65Z" transform="translate(-0.46)" style="fill:#1d1d1b"/><path d="M413.13,264c0,.6,0,1.13,0,1.58h-.94l-.06-.95h0a2.18,2.18,0,0,1-1.92,1.08c-.91,0-2-.5-2-2.54v-3.39h1.06V263c0,1.1.34,1.85,1.3,1.85a1.48,1.48,0,0,0,1.49-1.5v-3.56h1.06Z" transform="translate(-0.46)" style="fill:#1d1d1b"/><path d="M416.15,258.07v1.67h1.51v.8h-1.51v3.13c0,.72.2,1.13.79,1.13a2.35,2.35,0,0,0,.61-.07l0,.79a2.59,2.59,0,0,1-.94.14,1.46,1.46,0,0,1-1.14-.44,2.15,2.15,0,0,1-.41-1.51v-3.17h-.9v-.8h.9v-1.39Z" transform="translate(-0.46)" style="fill:#1d1d1b"/><path d="M422.07,265.54l-.08-.73h0a2.16,2.16,0,0,1-1.78.86A1.65,1.65,0,0,1,418.4,264c0-1.4,1.25-2.17,3.49-2.16v-.12a1.2,1.2,0,0,0-1.32-1.34,2.9,2.9,0,0,0-1.51.43l-.24-.7a3.61,3.61,0,0,1,1.91-.52c1.78,0,2.21,1.21,2.21,2.38v2.17a8.14,8.14,0,0,0,.1,1.39Zm-.16-3c-1.15,0-2.46.18-2.46,1.31a.93.93,0,0,0,1,1,1.44,1.44,0,0,0,1.4-1,1.12,1.12,0,0,0,.06-.34Z" transform="translate(-0.46)" style="fill:#1d1d1b"/><path d="M429.64,259.74c0,.42,0,.89,0,1.6v3.37a3.34,3.34,0,0,1-.83,2.65,3.08,3.08,0,0,1-2.11.7,3.75,3.75,0,0,1-1.93-.48l.26-.8a3.27,3.27,0,0,0,1.7.46c1.08,0,1.87-.56,1.87-2v-.65h0a2.07,2.07,0,0,1-1.85,1,2.6,2.6,0,0,1-2.47-2.83,2.79,2.79,0,0,1,2.61-3.08,1.93,1.93,0,0,1,1.81,1h0l0-.88ZM428.55,262a1.5,1.5,0,0,0-.06-.48,1.52,1.52,0,0,0-1.48-1.12c-1,0-1.73.85-1.73,2.2,0,1.14.58,2.09,1.71,2.09a1.55,1.55,0,0,0,1.46-1.08,1.85,1.85,0,0,0,.08-.56Z" transform="translate(-0.46)" style="fill:#1d1d1b"/><path d="M431.93,262.83a1.86,1.86,0,0,0,2,2,3.82,3.82,0,0,0,1.61-.3l.18.76a4.7,4.7,0,0,1-1.93.36,2.7,2.7,0,0,1-2.85-2.93c0-1.75,1-3.13,2.72-3.13a2.46,2.46,0,0,1,2.4,2.73,4,4,0,0,1,0,.49Zm3.09-.76a1.5,1.5,0,0,0-1.46-1.71,1.75,1.75,0,0,0-1.62,1.71Z" transform="translate(-0.46)" style="fill:#1d1d1b"/><rect x="670.95" y="265.48" width="123.1" height="25.84" transform="translate(1010.44 -454.11) rotate(90)" style="fill:#fff;stroke:#1d1d1b;stroke-miterlimit:10"/><path d="M731.67,249.21l-2.54-.84v-1.08l8.08,2.75v1.26l-8.08,2.76v-1.12l2.54-.86Zm.82,2.65,2.33-.79c.53-.18,1-.3,1.47-.42v0c-.48-.12-1-.25-1.46-.41l-2.34-.79Z" transform="translate(-0.46)" style="fill:#1d1d1b"/><path d="M730.21,255a2.76,2.76,0,0,0-.42,1.39c0,.77.38,1.13.86,1.13s.78-.3,1.07-1.08c.37-1,.95-1.54,1.64-1.54a1.79,1.79,0,0,1,1.7,2,2.9,2.9,0,0,1-.36,1.43l-.77-.26a2.27,2.27,0,0,0,.33-1.19c0-.62-.36-1-.79-1s-.7.35-1,1.1c-.38,1-.89,1.52-1.75,1.52-1,0-1.74-.79-1.74-2.17a3.32,3.32,0,0,1,.4-1.63Z" transform="translate(-0.46)" style="fill:#1d1d1b"/><path d="M730.21,259.75a2.76,2.76,0,0,0-.42,1.39c0,.77.38,1.13.86,1.13s.78-.3,1.07-1.08c.37-1,.95-1.54,1.64-1.54a1.79,1.79,0,0,1,1.7,2,2.9,2.9,0,0,1-.36,1.43l-.77-.26a2.27,2.27,0,0,0,.33-1.19c0-.62-.36-1-.79-1s-.7.35-1,1.1c-.38,1-.89,1.52-1.75,1.52-1,0-1.74-.79-1.74-2.17a3.32,3.32,0,0,1,.4-1.63Z" transform="translate(-0.46)" style="fill:#1d1d1b"/><path d="M731.84,265.23a1.86,1.86,0,0,0-2,2,3.82,3.82,0,0,0,.3,1.61l-.76.18a4.7,4.7,0,0,1-.36-1.93,2.7,2.7,0,0,1,2.93-2.85c1.75,0,3.13,1,3.13,2.72a2.46,2.46,0,0,1-2.73,2.4,4,4,0,0,1-.49,0Zm.76,3.09a1.5,1.5,0,0,0,1.71-1.46,1.75,1.75,0,0,0-1.71-1.62Z" transform="translate(-0.46)" style="fill:#1d1d1b"/><path d="M733.36,270.66c.6,0,1.09,0,1.57,0v.92l-.94,0v0a2,2,0,0,1,1.07,1.82,1.72,1.72,0,0,1-1.16,1.64v0a2.38,2.38,0,0,1,.76.65,2,2,0,0,1,.41,1.28c0,.77-.5,1.91-2.52,1.91h-3.42v-1h3.29c1.12,0,1.79-.41,1.79-1.26a1.37,1.37,0,0,0-1-1.25,1.74,1.74,0,0,0-.53-.08h-3.59v-1h3.48c.92,0,1.6-.41,1.6-1.21a1.57,1.57,0,0,0-1.57-1.39h-3.5v-1Z" transform="translate(-0.46)" style="fill:#1d1d1b"/><path d="M729.13,280.62c.4,0,1,0,1.5,0h7v1H734v0a2.16,2.16,0,0,1,1.07,2c0,1.44-1.2,2.46-3,2.45-2.07,0-3.11-1.31-3.11-2.6a2.07,2.07,0,0,1,1.09-1.94v0l-1,0Zm2.33,1.09a2,2,0,0,0-.38,0,1.63,1.63,0,0,0-1.24,1.58c0,1.1.9,1.76,2.23,1.76,1.16,0,2.16-.6,2.16-1.73a1.68,1.68,0,0,0-1.29-1.61,2.12,2.12,0,0,0-.43-.06Z" transform="translate(-0.46)" style="fill:#1d1d1b"/><path d="M737.65,287.49v1.05h-8.52v-1.05Z" transform="translate(-0.46)" style="fill:#1d1d1b"/><path d="M729.13,293.54l.73-.08v0a2.16,2.16,0,0,1-.86-1.78,1.65,1.65,0,0,1,1.67-1.77c1.4,0,2.17,1.25,2.16,3.49h.12a1.2,1.2,0,0,0,1.34-1.32,2.9,2.9,0,0,0-.43-1.51l.7-.24a3.6,3.6,0,0,1,.52,1.91c0,1.78-1.21,2.21-2.37,2.21h-2.17a8.26,8.26,0,0,0-1.39.1Zm3-.16c0-1.15-.18-2.46-1.31-2.46a.93.93,0,0,0-1,1,1.44,1.44,0,0,0,1,1.4,1.1,1.1,0,0,0,.34.06Z" transform="translate(-0.46)" style="fill:#1d1d1b"/><path d="M734.93,301.11c-.42,0-.89,0-1.59,0H730a3.34,3.34,0,0,1-2.65-.83,3.08,3.08,0,0,1-.7-2.11,3.74,3.74,0,0,1,.48-1.93l.8.26a3.27,3.27,0,0,0-.46,1.7c0,1.08.56,1.87,2,1.87h.65v0a2.07,2.07,0,0,1-1-1.85,2.6,2.6,0,0,1,2.83-2.47,2.79,2.79,0,0,1,3.08,2.61,1.93,1.93,0,0,1-1,1.81v0l.88,0ZM732.64,300a1.5,1.5,0,0,0,.48-.06,1.52,1.52,0,0,0,1.12-1.48c0-1-.85-1.73-2.19-1.73-1.14,0-2.09.58-2.09,1.71a1.54,1.54,0,0,0,1.08,1.46,1.82,1.82,0,0,0,.56.08Z" transform="translate(-0.46)" style="fill:#1d1d1b"/><path d="M731.84,303.4a1.86,1.86,0,0,0-2,2,3.82,3.82,0,0,0,.3,1.61l-.76.18a4.7,4.7,0,0,1-.36-1.93,2.7,2.7,0,0,1,2.93-2.85c1.75,0,3.13,1,3.13,2.72a2.46,2.46,0,0,1-2.73,2.4,4,4,0,0,1-.49,0Zm.76,3.09a1.5,1.5,0,0,0,1.71-1.46,1.75,1.75,0,0,0-1.71-1.62Z" transform="translate(-0.46)" style="fill:#1d1d1b"/><rect x="734.33" y="264.65" width="64.49" height="25.84" transform="translate(1043.7 -489.01) rotate(90)" style="fill:#fff;stroke:#1d1d1b;stroke-miterlimit:10"/><path d="M765.75,254.85l-2.54-.84v-1.08l8.08,2.75v1.26l-8.08,2.76v-1.12l2.54-.86Zm.82,2.65,2.33-.79c.53-.18,1-.3,1.47-.42v0c-.48-.12-1-.25-1.46-.41l-2.34-.79Z" transform="translate(-0.46)" style="fill:#1d1d1b"/><path d="M770.69,268a2.28,2.28,0,0,0,.31-1.18c0-1.12-.78-1.45-1.7-1.45H769v3.38h-5.8v-1.06h5v-2.31h-5v-1.06h5v-2.45h-5v-1h5v-.82h.8v.82h.22a2.63,2.63,0,0,1,1.93.7,2,2,0,0,1,.56,1.49,2.47,2.47,0,0,1-.25,1l-.78-.29a1.64,1.64,0,0,0,.2-.73,1,1,0,0,0-.31-.75,2,2,0,0,0-1.34-.38H769v2.45h.31a2.34,2.34,0,0,1,2.53,2.54,2.82,2.82,0,0,1-.37,1.44Z" transform="translate(-0.46)" style="fill:#1d1d1b"/><path d="M763.42,274.69a3.88,3.88,0,0,1-.34-1.67,2.76,2.76,0,0,1,3-2.89,3,3,0,0,1,3.08,3.12,3.52,3.52,0,0,1-.3,1.46l-.81-.24a2.47,2.47,0,0,0,.28-1.22,2.19,2.19,0,0,0-4.37,0,3,3,0,0,0,.29,1.29Z" transform="translate(-0.46)" style="fill:#1d1d1b"/><path d="M771.72,275.92V277H768.1v0a2,2,0,0,1,.74.76,2.16,2.16,0,0,1,.3,1.08c0,.78-.48,2-2.48,2h-3.46v-1.05h3.33c.94,0,1.73-.35,1.73-1.34a1.52,1.52,0,0,0-1.06-1.42,1.28,1.28,0,0,0-.5-.07h-3.5v-1.05Z" transform="translate(-0.46)" style="fill:#1d1d1b"/><path d="M763.21,285.8l.73-.08v0a2.16,2.16,0,0,1-.86-1.78,1.65,1.65,0,0,1,1.67-1.77c1.4,0,2.17,1.25,2.16,3.49H767a1.2,1.2,0,0,0,1.34-1.32,2.9,2.9,0,0,0-.43-1.51l.7-.24a3.6,3.6,0,0,1,.52,1.91c0,1.78-1.21,2.21-2.37,2.21H764.6a8.26,8.26,0,0,0-1.39.1Zm3-.16c0-1.15-.18-2.46-1.31-2.46a.93.93,0,0,0-1,1,1.44,1.44,0,0,0,1,1.4,1.1,1.1,0,0,0,.34.06Z" transform="translate(-0.46)" style="fill:#1d1d1b"/><path d="M769,293.37c-.42,0-.89,0-1.59,0H764a3.34,3.34,0,0,1-2.65-.83,3.08,3.08,0,0,1-.7-2.11,3.75,3.75,0,0,1,.48-1.93l.8.26a3.27,3.27,0,0,0-.46,1.7c0,1.08.56,1.87,2,1.87h.65v0a2.07,2.07,0,0,1-1-1.85,2.6,2.6,0,0,1,2.83-2.47,2.79,2.79,0,0,1,3.08,2.61,1.93,1.93,0,0,1-1,1.81v0l.88,0Zm-2.29-1.09a1.5,1.5,0,0,0,.48-.06,1.52,1.52,0,0,0,1.12-1.48c0-1-.85-1.73-2.19-1.73-1.14,0-2.09.58-2.09,1.71a1.54,1.54,0,0,0,1.08,1.46,1.82,1.82,0,0,0,.56.08Z" transform="translate(-0.46)" style="fill:#1d1d1b"/><path d="M765.92,295.66a1.86,1.86,0,0,0-2,2,3.82,3.82,0,0,0,.3,1.61l-.76.18a4.7,4.7,0,0,1-.36-1.93,2.7,2.7,0,0,1,2.93-2.85c1.75,0,3.13,1,3.13,2.72a2.46,2.46,0,0,1-2.73,2.4,4,4,0,0,1-.49,0Zm.76,3.09a1.5,1.5,0,0,0,1.71-1.46,1.75,1.75,0,0,0-1.71-1.62Z" transform="translate(-0.46)" style="fill:#1d1d1b"/><rect x="542.72" y="203.93" width="67.05" height="25.84" style="fill:#fff;stroke:#1d1d1b;stroke-miterlimit:10"/><path d="M551.39,212.13h4.35V213h-3.31v2.69h3.06v.86h-3.06v3.66h-1Z" transform="translate(-0.46)" style="fill:#1d1d1b"/><path d="M557,211.7H558v8.52H557Z" transform="translate(-0.46)" style="fill:#1d1d1b"/><path d="M564.68,218.64c0,.6,0,1.13,0,1.58h-.94l-.06-.95h0a2.19,2.19,0,0,1-1.92,1.08c-.91,0-2-.5-2-2.54v-3.39h1.05v3.21c0,1.1.34,1.85,1.3,1.85a1.49,1.49,0,0,0,1.49-1.5v-3.56h1.05Z" transform="translate(-0.46)" style="fill:#1d1d1b"/><path d="M566.93,214.41l.83,1.25c.22.32.4.62.59.95h0c.19-.35.38-.65.58-1l.82-1.24h1.14l-2,2.81,2,3h-1.2l-.85-1.31c-.23-.34-.42-.66-.62-1h0c-.19.35-.4.66-.61,1l-.84,1.31h-1.16l2.06-3-2-2.84Z" transform="translate(-0.46)" style="fill:#1d1d1b"/><path d="M574.95,214.41l1.14,3.26a15.06,15.06,0,0,1,.47,1.49h0c.13-.48.3-1,.49-1.49l1.13-3.26h1.1l-2.28,5.8h-1l-2.21-5.8Z" transform="translate(-0.46)" style="fill:#1d1d1b"/><path d="M581.49,212.78a.65.65,0,0,1-1.31,0,.64.64,0,0,1,.66-.66A.63.63,0,0,1,581.49,212.78Zm-1.17,7.44v-5.8h1.05v5.8Z" transform="translate(-0.46)" style="fill:#1d1d1b"/><path d="M588.13,211.7v7c0,.52,0,1.1,0,1.5h-.95l0-1h0a2.15,2.15,0,0,1-2,1.14c-1.4,0-2.48-1.19-2.48-3,0-1.93,1.19-3.12,2.6-3.12a1.94,1.94,0,0,1,1.75.89h0V211.7Zm-1.06,5.07a1.85,1.85,0,0,0,0-.44,1.55,1.55,0,0,0-1.52-1.22c-1.09,0-1.74,1-1.74,2.24s.58,2.15,1.71,2.15a1.59,1.59,0,0,0,1.55-1.26,1.83,1.83,0,0,0,0-.46Z" transform="translate(-0.46)" style="fill:#1d1d1b"/><path d="M590.47,217.51a1.86,1.86,0,0,0,2,2,3.82,3.82,0,0,0,1.61-.3l.18.76a4.7,4.7,0,0,1-1.93.36,2.7,2.7,0,0,1-2.85-2.93c0-1.75,1-3.13,2.72-3.13a2.46,2.46,0,0,1,2.4,2.73,4,4,0,0,1,0,.49Zm3.09-.76a1.5,1.5,0,0,0-1.46-1.71,1.75,1.75,0,0,0-1.62,1.71Zm.25-4.85-1.46,1.72h-.75l1.06-1.72Z" transform="translate(-0.46)" style="fill:#1d1d1b"/><path d="M601.15,217.27a2.84,2.84,0,0,1-2.89,3.08,2.76,2.76,0,0,1-2.78-3,2.83,2.83,0,0,1,2.88-3.08A2.75,2.75,0,0,1,601.15,217.27Zm-4.61.06c0,1.27.73,2.23,1.76,2.23s1.76-.95,1.76-2.25c0-1-.49-2.23-1.74-2.23S596.55,216.22,596.55,217.33Z" transform="translate(-0.46)" style="fill:#1d1d1b"/><ellipse cx="664.07" cy="216.85" rx="44.38" ry="12.92" style="fill:#fff;stroke:#1d1d1b;stroke-miterlimit:10"/><path d="M644.22,216.43h-3.14v2.91h3.5v.88H640v-8.08h4.37V213h-3.32v2.55h3.14Z" transform="translate(-0.46)" style="fill:#1d1d1b"/><path d="M649.49,220.22v-5h-2.43v5h-1v-5h-.82v-.8H646v-.19a2.74,2.74,0,0,1,.65-2,2,2,0,0,1,1.46-.54,1.86,1.86,0,0,1,.83.2l-.22.78a1.54,1.54,0,0,0-.62-.14c-.83,0-1.05.71-1.05,1.62v.25h2.43v-.28a2.74,2.74,0,0,1,.68-2,2,2,0,0,1,1.4-.54,2.4,2.4,0,0,1,.9.17l-.13.82a1.63,1.63,0,0,0-.68-.13c-.89,0-1.13.79-1.13,1.68v.31h1.4v.8h-1.39v5Z" transform="translate(-0.46)" style="fill:#1d1d1b"/><path d="M653.33,217.51a1.86,1.86,0,0,0,2,2,3.82,3.82,0,0,0,1.61-.3l.18.76a4.7,4.7,0,0,1-1.93.36,2.7,2.7,0,0,1-2.85-2.93c0-1.75,1-3.13,2.72-3.13a2.46,2.46,0,0,1,2.4,2.73,4,4,0,0,1,0,.49Zm3.09-.76A1.5,1.5,0,0,0,655,215a1.75,1.75,0,0,0-1.62,1.71Z" transform="translate(-0.46)" style="fill:#1d1d1b"/><path d="M660,212.75v1.67h1.51v.8H660v3.13c0,.72.2,1.13.79,1.13a2.36,2.36,0,0,0,.61-.07l0,.79a2.58,2.58,0,0,1-.94.14,1.46,1.46,0,0,1-1.14-.44,2.15,2.15,0,0,1-.41-1.51v-3.17h-.9v-.8h.9V213Z" transform="translate(-0.46)" style="fill:#1d1d1b"/><path d="M665.67,214.41l1.14,3.26a15.06,15.06,0,0,1,.47,1.49h0c.13-.48.3-1,.49-1.49l1.13-3.26H670l-2.28,5.8h-1l-2.21-5.8Z" transform="translate(-0.46)" style="fill:#1d1d1b"/><path d="M672.21,212.78a.65.65,0,0,1-1.31,0,.64.64,0,0,1,.66-.66A.63.63,0,0,1,672.21,212.78ZM671,220.22v-5.8h1.05v5.8Z" transform="translate(-0.46)" style="fill:#1d1d1b"/><path d="M678.86,211.7v7c0,.52,0,1.1,0,1.5H678l0-1h0a2.15,2.15,0,0,1-2,1.14c-1.4,0-2.48-1.19-2.48-3,0-1.93,1.19-3.12,2.6-3.12a1.94,1.94,0,0,1,1.75.89h0V211.7Zm-1.06,5.07a1.85,1.85,0,0,0,0-.44,1.55,1.55,0,0,0-1.52-1.22c-1.09,0-1.74,1-1.74,2.24s.58,2.15,1.71,2.15a1.59,1.59,0,0,0,1.55-1.26,1.83,1.83,0,0,0,0-.46Z" transform="translate(-0.46)" style="fill:#1d1d1b"/><path d="M681.2,217.51a1.86,1.86,0,0,0,2,2,3.82,3.82,0,0,0,1.61-.3l.18.76a4.7,4.7,0,0,1-1.93.36,2.7,2.7,0,0,1-2.85-2.93c0-1.75,1-3.13,2.72-3.13a2.46,2.46,0,0,1,2.4,2.73,4,4,0,0,1,0,.49Zm3.09-.76a1.5,1.5,0,0,0-1.46-1.71,1.75,1.75,0,0,0-1.62,1.71Zm.25-4.85-1.46,1.72h-.75l1.06-1.72Z" transform="translate(-0.46)" style="fill:#1d1d1b"/><path d="M691.88,217.27a2.84,2.84,0,0,1-2.89,3.08,2.76,2.76,0,0,1-2.78-3,2.83,2.83,0,0,1,2.88-3.08A2.75,2.75,0,0,1,691.88,217.27Zm-4.61.06c0,1.27.73,2.23,1.76,2.23s1.76-.95,1.76-2.25c0-1-.49-2.23-1.74-2.23S687.27,216.23,687.27,217.33Z" transform="translate(-0.46)" style="fill:#1d1d1b"/><line x1="619.69" y1="216.85" x2="609.77" y2="216.85" style="fill:none;stroke:#1d1d1b;stroke-miterlimit:10"/><line x1="719.12" y1="216.85" x2="708.45" y2="216.85" style="fill:none;stroke:#1d1d1b;stroke-miterlimit:10"/><rect x="542.72" y="233.7" width="67.05" height="25.84" style="fill:#fff;stroke:#1d1d1b;stroke-miterlimit:10"/><path d="M551.39,241.91h4.35v.88h-3.31v2.69h3.06v.86h-3.06V250h-1Z" transform="translate(-0.46)" style="fill:#1d1d1b"/><path d="M557,241.48H558V250H557Z" transform="translate(-0.46)" style="fill:#1d1d1b"/><path d="M564.68,248.41c0,.6,0,1.13,0,1.58h-.94l-.06-.95h0a2.19,2.19,0,0,1-1.92,1.08c-.91,0-2-.5-2-2.54v-3.39h1.05v3.21c0,1.1.34,1.85,1.3,1.85a1.49,1.49,0,0,0,1.49-1.5v-3.56h1.05Z" transform="translate(-0.46)" style="fill:#1d1d1b"/><path d="M566.93,244.19l.83,1.25c.22.32.4.62.59.95h0c.19-.35.38-.65.58-1l.82-1.24h1.14l-2,2.81,2,3h-1.2l-.85-1.31c-.23-.34-.42-.66-.62-1h0c-.19.35-.4.66-.61,1l-.84,1.31h-1.16l2.06-3-2-2.84Z" transform="translate(-0.46)" style="fill:#1d1d1b"/><path d="M574.95,244.19l1.14,3.26a15.1,15.1,0,0,1,.47,1.49h0c.13-.48.3-1,.49-1.49l1.13-3.26h1.1L577,250h-1l-2.21-5.8Z" transform="translate(-0.46)" style="fill:#1d1d1b"/><path d="M581.49,242.56a.65.65,0,0,1-1.31,0,.64.64,0,0,1,.66-.66A.63.63,0,0,1,581.49,242.56ZM580.31,250v-5.8h1.05V250Z" transform="translate(-0.46)" style="fill:#1d1d1b"/><path d="M588.13,241.48v7c0,.52,0,1.1,0,1.5h-.95l0-1h0a2.15,2.15,0,0,1-2,1.14c-1.4,0-2.48-1.19-2.48-3,0-1.93,1.19-3.12,2.6-3.12a1.94,1.94,0,0,1,1.75.89h0v-3.47Zm-1.06,5.07a1.85,1.85,0,0,0,0-.44,1.55,1.55,0,0,0-1.52-1.22c-1.09,0-1.74,1-1.74,2.24s.58,2.15,1.71,2.15A1.59,1.59,0,0,0,587,248a1.82,1.82,0,0,0,0-.46Z" transform="translate(-0.46)" style="fill:#1d1d1b"/><path d="M590.47,247.28a1.86,1.86,0,0,0,2,2,3.82,3.82,0,0,0,1.61-.3l.18.76a4.7,4.7,0,0,1-1.93.36,2.7,2.7,0,0,1-2.85-2.93c0-1.75,1-3.13,2.72-3.13a2.46,2.46,0,0,1,2.4,2.73,4,4,0,0,1,0,.49Zm3.09-.76a1.5,1.5,0,0,0-1.46-1.71,1.75,1.75,0,0,0-1.62,1.71Zm.25-4.85-1.46,1.72h-.75l1.06-1.72Z" transform="translate(-0.46)" style="fill:#1d1d1b"/><path d="M601.15,247a2.84,2.84,0,0,1-2.89,3.08,2.76,2.76,0,0,1-2.78-3,2.83,2.83,0,0,1,2.88-3.08A2.75,2.75,0,0,1,601.15,247Zm-4.61.06c0,1.27.73,2.23,1.76,2.23s1.76-.95,1.76-2.25c0-1-.49-2.23-1.74-2.23S596.55,246,596.55,247.1Z" transform="translate(-0.46)" style="fill:#1d1d1b"/><ellipse cx="664.07" cy="246.62" rx="44.38" ry="12.92" style="fill:#fff;stroke:#1d1d1b;stroke-miterlimit:10"/><path d="M644.22,246.2h-3.14v2.91h3.5V250H640v-8.08h4.37v.88h-3.32v2.56h3.14Z" transform="translate(-0.46)" style="fill:#1d1d1b"/><path d="M649.49,250v-5h-2.43v5h-1v-5h-.82v-.8H646V244a2.74,2.74,0,0,1,.65-2,2,2,0,0,1,1.46-.54,1.86,1.86,0,0,1,.83.2l-.22.78a1.54,1.54,0,0,0-.62-.14c-.83,0-1.05.71-1.05,1.62v.25h2.43v-.28a2.74,2.74,0,0,1,.68-2,2,2,0,0,1,1.4-.54,2.4,2.4,0,0,1,.9.17l-.13.82a1.63,1.63,0,0,0-.68-.13c-.89,0-1.13.79-1.13,1.68v.31h1.4v.8h-1.39v5Z" transform="translate(-0.46)" style="fill:#1d1d1b"/><path d="M653.33,247.28a1.86,1.86,0,0,0,2,2,3.82,3.82,0,0,0,1.61-.3l.18.76a4.7,4.7,0,0,1-1.93.36,2.7,2.7,0,0,1-2.85-2.93c0-1.75,1-3.13,2.72-3.13a2.46,2.46,0,0,1,2.4,2.73,4,4,0,0,1,0,.49Zm3.09-.76a1.5,1.5,0,0,0-1.46-1.71,1.75,1.75,0,0,0-1.62,1.71Z" transform="translate(-0.46)" style="fill:#1d1d1b"/><path d="M660,242.52v1.67h1.51v.8H660v3.13c0,.72.2,1.13.79,1.13a2.39,2.39,0,0,0,.61-.07l0,.79a2.58,2.58,0,0,1-.94.14,1.46,1.46,0,0,1-1.14-.44,2.15,2.15,0,0,1-.41-1.51V245h-.9v-.8h.9V242.8Z" transform="translate(-0.46)" style="fill:#1d1d1b"/><path d="M665.67,244.19l1.14,3.26a15.1,15.1,0,0,1,.47,1.49h0c.13-.48.3-1,.49-1.49l1.13-3.26H670l-2.28,5.8h-1l-2.21-5.8Z" transform="translate(-0.46)" style="fill:#1d1d1b"/><path d="M672.21,242.56a.65.65,0,0,1-1.31,0,.64.64,0,0,1,.66-.66A.63.63,0,0,1,672.21,242.56ZM671,250v-5.8h1.05V250Z" transform="translate(-0.46)" style="fill:#1d1d1b"/><path d="M678.86,241.48v7c0,.52,0,1.1,0,1.5H678l0-1h0a2.15,2.15,0,0,1-2,1.14c-1.4,0-2.48-1.19-2.48-3,0-1.93,1.19-3.12,2.6-3.12a1.94,1.94,0,0,1,1.75.89h0v-3.47Zm-1.06,5.07a1.85,1.85,0,0,0,0-.44,1.55,1.55,0,0,0-1.52-1.22c-1.09,0-1.74,1-1.74,2.24s.58,2.15,1.71,2.15a1.59,1.59,0,0,0,1.55-1.26,1.82,1.82,0,0,0,0-.46Z" transform="translate(-0.46)" style="fill:#1d1d1b"/><path d="M681.2,247.28a1.86,1.86,0,0,0,2,2,3.82,3.82,0,0,0,1.61-.3l.18.76a4.7,4.7,0,0,1-1.93.36,2.7,2.7,0,0,1-2.85-2.93c0-1.75,1-3.13,2.72-3.13a2.46,2.46,0,0,1,2.4,2.73,4,4,0,0,1,0,.49Zm3.09-.76a1.5,1.5,0,0,0-1.46-1.71,1.75,1.75,0,0,0-1.62,1.71Zm.25-4.85-1.46,1.72h-.75l1.06-1.72Z" transform="translate(-0.46)" style="fill:#1d1d1b"/><path d="M691.88,247a2.84,2.84,0,0,1-2.89,3.08,2.76,2.76,0,0,1-2.78-3,2.83,2.83,0,0,1,2.88-3.08A2.75,2.75,0,0,1,691.88,247Zm-4.61.06c0,1.27.73,2.23,1.76,2.23s1.76-.95,1.76-2.25c0-1-.49-2.23-1.74-2.23S687.27,246,687.27,247.1Z" transform="translate(-0.46)" style="fill:#1d1d1b"/><line x1="619.69" y1="246.62" x2="609.77" y2="246.62" style="fill:none;stroke:#1d1d1b;stroke-miterlimit:10"/><line x1="719.12" y1="246.62" x2="708.45" y2="246.62" style="fill:none;stroke:#1d1d1b;stroke-miterlimit:10"/><rect x="542.72" y="264.65" width="67.05" height="25.84" style="fill:#fff;stroke:#1d1d1b;stroke-miterlimit:10"/><path d="M551.39,272.86h4.35v.88h-3.31v2.69h3.06v.86h-3.06v3.66h-1Z" transform="translate(-0.46)" style="fill:#1d1d1b"/><path d="M557,272.43H558v8.52H557Z" transform="translate(-0.46)" style="fill:#1d1d1b"/><path d="M564.68,279.36c0,.6,0,1.13,0,1.58h-.94l-.06-.95h0a2.19,2.19,0,0,1-1.92,1.08c-.91,0-2-.5-2-2.54v-3.39h1.05v3.21c0,1.1.34,1.85,1.3,1.85a1.49,1.49,0,0,0,1.49-1.5v-3.56h1.05Z" transform="translate(-0.46)" style="fill:#1d1d1b"/><path d="M566.93,275.14l.83,1.25c.22.32.4.62.59.95h0c.19-.35.38-.65.58-1l.82-1.24h1.14l-2,2.81,2,3h-1.2l-.85-1.31c-.23-.34-.42-.66-.62-1h0c-.19.35-.4.66-.61,1l-.84,1.31h-1.16l2.06-3-2-2.84Z" transform="translate(-0.46)" style="fill:#1d1d1b"/><path d="M574.95,275.14l1.14,3.26a15.1,15.1,0,0,1,.47,1.49h0c.13-.48.3-1,.49-1.49l1.13-3.26h1.1l-2.28,5.8h-1l-2.21-5.8Z" transform="translate(-0.46)" style="fill:#1d1d1b"/><path d="M581.49,273.51a.65.65,0,0,1-1.31,0,.64.64,0,0,1,.66-.66A.63.63,0,0,1,581.49,273.51Zm-1.17,7.44v-5.8h1.05v5.8Z" transform="translate(-0.46)" style="fill:#1d1d1b"/><path d="M588.13,272.43v7c0,.52,0,1.1,0,1.5h-.95l0-1h0a2.15,2.15,0,0,1-2,1.14c-1.4,0-2.48-1.19-2.48-3,0-1.93,1.19-3.12,2.6-3.12a1.94,1.94,0,0,1,1.75.89h0v-3.47Zm-1.06,5.07a1.85,1.85,0,0,0,0-.44,1.55,1.55,0,0,0-1.52-1.22c-1.09,0-1.74,1-1.74,2.24s.58,2.15,1.71,2.15A1.59,1.59,0,0,0,587,279a1.82,1.82,0,0,0,0-.46Z" transform="translate(-0.46)" style="fill:#1d1d1b"/><path d="M590.47,278.23a1.86,1.86,0,0,0,2,2,3.82,3.82,0,0,0,1.61-.3l.18.76a4.7,4.7,0,0,1-1.93.36,2.7,2.7,0,0,1-2.85-2.93c0-1.75,1-3.13,2.72-3.13a2.46,2.46,0,0,1,2.4,2.73,4,4,0,0,1,0,.49Zm3.09-.76a1.5,1.5,0,0,0-1.46-1.71,1.75,1.75,0,0,0-1.62,1.71Zm.25-4.84-1.46,1.71h-.75l1.06-1.71Z" transform="translate(-0.46)" style="fill:#1d1d1b"/><path d="M601.15,278a2.84,2.84,0,0,1-2.89,3.08,2.76,2.76,0,0,1-2.78-3,2.83,2.83,0,0,1,2.88-3.08A2.75,2.75,0,0,1,601.15,278Zm-4.61.06c0,1.27.73,2.23,1.76,2.23s1.76-.95,1.76-2.25c0-1-.49-2.23-1.74-2.23S596.55,277,596.55,278.05Z" transform="translate(-0.46)" style="fill:#1d1d1b"/><ellipse cx="664.07" cy="277.57" rx="44.38" ry="12.92" style="fill:#fff;stroke:#1d1d1b;stroke-miterlimit:10"/><path d="M644.22,277.16h-3.14v2.91h3.5v.88H640v-8.08h4.37v.88h-3.32v2.55h3.14Z" transform="translate(-0.46)" style="fill:#1d1d1b"/><path d="M649.49,280.95v-5h-2.43v5h-1v-5h-.82v-.8H646v-.19a2.74,2.74,0,0,1,.65-2,2,2,0,0,1,1.46-.54,1.86,1.86,0,0,1,.83.2l-.22.78a1.54,1.54,0,0,0-.62-.14c-.83,0-1.05.71-1.05,1.62v.25h2.43v-.28a2.74,2.74,0,0,1,.68-2,2,2,0,0,1,1.4-.54,2.4,2.4,0,0,1,.9.17l-.13.82a1.63,1.63,0,0,0-.68-.13c-.89,0-1.13.79-1.13,1.68v.31h1.4v.8h-1.39v5Z" transform="translate(-0.46)" style="fill:#1d1d1b"/><path d="M653.33,278.23a1.86,1.86,0,0,0,2,2,3.82,3.82,0,0,0,1.61-.3l.18.76a4.7,4.7,0,0,1-1.93.36,2.7,2.7,0,0,1-2.85-2.93c0-1.75,1-3.13,2.72-3.13a2.46,2.46,0,0,1,2.4,2.73,4,4,0,0,1,0,.49Zm3.09-.76a1.5,1.5,0,0,0-1.46-1.71,1.75,1.75,0,0,0-1.62,1.71Z" transform="translate(-0.46)" style="fill:#1d1d1b"/><path d="M660,273.47v1.67h1.51v.8H660v3.13c0,.72.2,1.13.79,1.13a2.39,2.39,0,0,0,.61-.07l0,.79a2.58,2.58,0,0,1-.94.14,1.46,1.46,0,0,1-1.14-.44,2.15,2.15,0,0,1-.41-1.51v-3.17h-.9v-.8h.9v-1.39Z" transform="translate(-0.46)" style="fill:#1d1d1b"/><path d="M665.67,275.14l1.14,3.26a15.1,15.1,0,0,1,.47,1.49h0c.13-.48.3-1,.49-1.49l1.13-3.26H670l-2.28,5.8h-1l-2.21-5.8Z" transform="translate(-0.46)" style="fill:#1d1d1b"/><path d="M672.21,273.51a.65.65,0,0,1-1.31,0,.64.64,0,0,1,.66-.66A.63.63,0,0,1,672.21,273.51ZM671,280.95v-5.8h1.05v5.8Z" transform="translate(-0.46)" style="fill:#1d1d1b"/><path d="M678.86,272.43v7c0,.52,0,1.1,0,1.5H678l0-1h0a2.15,2.15,0,0,1-2,1.14c-1.4,0-2.48-1.19-2.48-3,0-1.93,1.19-3.12,2.6-3.12a1.94,1.94,0,0,1,1.75.89h0v-3.47Zm-1.06,5.07a1.85,1.85,0,0,0,0-.44,1.55,1.55,0,0,0-1.52-1.22c-1.09,0-1.74,1-1.74,2.24s.58,2.15,1.71,2.15a1.59,1.59,0,0,0,1.55-1.26,1.82,1.82,0,0,0,0-.46Z" transform="translate(-0.46)" style="fill:#1d1d1b"/><path d="M681.2,278.23a1.86,1.86,0,0,0,2,2,3.82,3.82,0,0,0,1.61-.3l.18.76a4.7,4.7,0,0,1-1.93.36,2.7,2.7,0,0,1-2.85-2.93c0-1.75,1-3.13,2.72-3.13a2.46,2.46,0,0,1,2.4,2.73,4,4,0,0,1,0,.49Zm3.09-.76a1.5,1.5,0,0,0-1.46-1.71,1.75,1.75,0,0,0-1.62,1.71Zm.25-4.84-1.46,1.71h-.75l1.06-1.71Z" transform="translate(-0.46)" style="fill:#1d1d1b"/><path d="M691.88,278a2.84,2.84,0,0,1-2.89,3.08,2.76,2.76,0,0,1-2.78-3,2.83,2.83,0,0,1,2.88-3.08A2.75,2.75,0,0,1,691.88,278Zm-4.61.06c0,1.27.73,2.23,1.76,2.23s1.76-.95,1.76-2.25c0-1-.49-2.23-1.74-2.23S687.27,277,687.27,278.05Z" transform="translate(-0.46)" style="fill:#1d1d1b"/><line x1="619.69" y1="277.57" x2="609.77" y2="277.57" style="fill:none;stroke:#1d1d1b;stroke-miterlimit:10"/><line x1="719.12" y1="277.57" x2="708.45" y2="277.57" style="fill:none;stroke:#1d1d1b;stroke-miterlimit:10"/><rect x="542.72" y="294.43" width="67.05" height="25.84" style="fill:#fff;stroke:#1d1d1b;stroke-miterlimit:10"/><path d="M551.39,302.64h4.35v.88h-3.31v2.69h3.06v.86h-3.06v3.66h-1Z" transform="translate(-0.46)" style="fill:#1d1d1b"/><path d="M557,302.21H558v8.52H557Z" transform="translate(-0.46)" style="fill:#1d1d1b"/><path d="M564.68,309.14c0,.6,0,1.13,0,1.58h-.94l-.06-.95h0a2.19,2.19,0,0,1-1.92,1.08c-.91,0-2-.5-2-2.54v-3.39h1.05v3.21c0,1.1.34,1.85,1.3,1.85a1.49,1.49,0,0,0,1.49-1.5v-3.56h1.05Z" transform="translate(-0.46)" style="fill:#1d1d1b"/><path d="M566.93,304.92l.83,1.25c.22.32.4.62.59.95h0c.19-.35.38-.65.58-1l.82-1.24h1.14l-2,2.81,2,3h-1.2l-.85-1.31c-.23-.34-.42-.66-.62-1h0c-.19.35-.4.66-.61,1l-.84,1.31h-1.16l2.06-3-2-2.84Z" transform="translate(-0.46)" style="fill:#1d1d1b"/><path d="M574.95,304.92l1.14,3.26a15.1,15.1,0,0,1,.47,1.49h0c.13-.48.3-1,.49-1.49l1.13-3.26h1.1l-2.28,5.8h-1l-2.21-5.8Z" transform="translate(-0.46)" style="fill:#1d1d1b"/><path d="M581.49,303.28a.65.65,0,0,1-1.31,0,.64.64,0,0,1,.66-.66A.63.63,0,0,1,581.49,303.28Zm-1.17,7.44v-5.8h1.05v5.8Z" transform="translate(-0.46)" style="fill:#1d1d1b"/><path d="M588.13,302.21v7c0,.52,0,1.1,0,1.5h-.95l0-1h0a2.15,2.15,0,0,1-2,1.14c-1.4,0-2.48-1.19-2.48-3,0-1.93,1.19-3.12,2.6-3.12a1.94,1.94,0,0,1,1.75.89h0v-3.47Zm-1.06,5.07a1.85,1.85,0,0,0,0-.44,1.55,1.55,0,0,0-1.52-1.22c-1.09,0-1.74,1-1.74,2.24s.58,2.15,1.71,2.15a1.59,1.59,0,0,0,1.55-1.26,1.82,1.82,0,0,0,0-.46Z" transform="translate(-0.46)" style="fill:#1d1d1b"/><path d="M590.47,308a1.86,1.86,0,0,0,2,2,3.82,3.82,0,0,0,1.61-.3l.18.76a4.7,4.7,0,0,1-1.93.36,2.7,2.7,0,0,1-2.85-2.93c0-1.75,1-3.13,2.72-3.13a2.46,2.46,0,0,1,2.4,2.73,4,4,0,0,1,0,.49Zm3.09-.76a1.5,1.5,0,0,0-1.46-1.71,1.75,1.75,0,0,0-1.62,1.71Zm.25-4.84-1.46,1.71h-.75l1.06-1.71Z" transform="translate(-0.46)" style="fill:#1d1d1b"/><path d="M601.15,307.77a2.84,2.84,0,0,1-2.89,3.08,2.76,2.76,0,0,1-2.78-3,2.83,2.83,0,0,1,2.88-3.08A2.75,2.75,0,0,1,601.15,307.77Zm-4.61.06c0,1.27.73,2.23,1.76,2.23s1.76-.95,1.76-2.25c0-1-.49-2.23-1.74-2.23S596.55,306.73,596.55,307.83Z" transform="translate(-0.46)" style="fill:#1d1d1b"/><ellipse cx="664.07" cy="307.35" rx="44.38" ry="12.92" style="fill:#fff;stroke:#1d1d1b;stroke-miterlimit:10"/><path d="M644.22,306.93h-3.14v2.91h3.5v.88H640v-8.08h4.37v.88h-3.32v2.55h3.14Z" transform="translate(-0.46)" style="fill:#1d1d1b"/><path d="M649.49,310.72v-5h-2.43v5h-1v-5h-.82v-.8H646v-.19a2.74,2.74,0,0,1,.65-2,2,2,0,0,1,1.46-.54,1.86,1.86,0,0,1,.83.2l-.22.78a1.54,1.54,0,0,0-.62-.14c-.83,0-1.05.71-1.05,1.62v.25h2.43v-.28a2.74,2.74,0,0,1,.68-2,2,2,0,0,1,1.4-.54,2.4,2.4,0,0,1,.9.17l-.13.82a1.63,1.63,0,0,0-.68-.13c-.89,0-1.13.79-1.13,1.68v.31h1.4v.8h-1.39v5Z" transform="translate(-0.46)" style="fill:#1d1d1b"/><path d="M653.33,308a1.86,1.86,0,0,0,2,2,3.82,3.82,0,0,0,1.61-.3l.18.76a4.7,4.7,0,0,1-1.93.36,2.7,2.7,0,0,1-2.85-2.93c0-1.75,1-3.13,2.72-3.13a2.46,2.46,0,0,1,2.4,2.73,4,4,0,0,1,0,.49Zm3.09-.76a1.5,1.5,0,0,0-1.46-1.71,1.75,1.75,0,0,0-1.62,1.71Z" transform="translate(-0.46)" style="fill:#1d1d1b"/><path d="M660,303.25v1.67h1.51v.8H660v3.13c0,.72.2,1.13.79,1.13a2.39,2.39,0,0,0,.61-.07l0,.79a2.58,2.58,0,0,1-.94.14,1.46,1.46,0,0,1-1.14-.44,2.15,2.15,0,0,1-.41-1.51v-3.17h-.9v-.8h.9v-1.39Z" transform="translate(-0.46)" style="fill:#1d1d1b"/><path d="M665.67,304.92l1.14,3.26a15.1,15.1,0,0,1,.47,1.49h0c.13-.48.3-1,.49-1.49l1.13-3.26H670l-2.28,5.8h-1l-2.21-5.8Z" transform="translate(-0.46)" style="fill:#1d1d1b"/><path d="M672.21,303.28a.65.65,0,0,1-1.31,0,.64.64,0,0,1,.66-.66A.63.63,0,0,1,672.21,303.28ZM671,310.72v-5.8h1.05v5.8Z" transform="translate(-0.46)" style="fill:#1d1d1b"/><path d="M678.86,302.21v7c0,.52,0,1.1,0,1.5H678l0-1h0a2.15,2.15,0,0,1-2,1.14c-1.4,0-2.48-1.19-2.48-3,0-1.93,1.19-3.12,2.6-3.12a1.94,1.94,0,0,1,1.75.89h0v-3.47Zm-1.06,5.07a1.85,1.85,0,0,0,0-.44,1.55,1.55,0,0,0-1.52-1.22c-1.09,0-1.74,1-1.74,2.24s.58,2.15,1.71,2.15a1.59,1.59,0,0,0,1.55-1.26,1.82,1.82,0,0,0,0-.46Z" transform="translate(-0.46)" style="fill:#1d1d1b"/><path d="M681.2,308a1.86,1.86,0,0,0,2,2,3.82,3.82,0,0,0,1.61-.3l.18.76a4.7,4.7,0,0,1-1.93.36,2.7,2.7,0,0,1-2.85-2.93c0-1.75,1-3.13,2.72-3.13a2.46,2.46,0,0,1,2.4,2.73,4,4,0,0,1,0,.49Zm3.09-.76a1.5,1.5,0,0,0-1.46-1.71,1.75,1.75,0,0,0-1.62,1.71Zm.25-4.84-1.46,1.71h-.75l1.06-1.71Z" transform="translate(-0.46)" style="fill:#1d1d1b"/><path d="M691.88,307.77a2.84,2.84,0,0,1-2.89,3.08,2.76,2.76,0,0,1-2.78-3,2.83,2.83,0,0,1,2.88-3.08A2.75,2.75,0,0,1,691.88,307.77Zm-4.61.06c0,1.27.73,2.23,1.76,2.23s1.76-.95,1.76-2.25c0-1-.49-2.23-1.74-2.23S687.27,306.73,687.27,307.83Z" transform="translate(-0.46)" style="fill:#1d1d1b"/><line x1="619.69" y1="307.35" x2="609.77" y2="307.35" style="fill:none;stroke:#1d1d1b;stroke-miterlimit:10"/><line x1="719.12" y1="307.35" x2="708.45" y2="307.35" style="fill:none;stroke:#1d1d1b;stroke-miterlimit:10"/><rect x="542.72" y="327.02" width="67.05" height="25.84" style="fill:#fff;stroke:#1d1d1b;stroke-miterlimit:10"/><path d="M551.39,335.23h4.35v.88h-3.31v2.69h3.06v.86h-3.06v3.66h-1Z" transform="translate(-0.46)" style="fill:#1d1d1b"/><path d="M557,334.8H558v8.51H557Z" transform="translate(-0.46)" style="fill:#1d1d1b"/><path d="M564.68,341.73c0,.6,0,1.13,0,1.58h-.94l-.06-.95h0a2.18,2.18,0,0,1-1.92,1.08c-.91,0-2-.5-2-2.54v-3.39h1.05v3.21c0,1.1.34,1.85,1.3,1.85a1.49,1.49,0,0,0,1.49-1.5v-3.56h1.05Z" transform="translate(-0.46)" style="fill:#1d1d1b"/><path d="M566.93,337.51l.83,1.25c.22.32.4.62.59.95h0c.19-.35.38-.65.58-1l.82-1.24h1.14l-2,2.81,2,3h-1.2l-.85-1.31c-.23-.34-.42-.66-.62-1h0c-.19.35-.4.66-.61,1l-.84,1.31h-1.16l2.06-3-2-2.84Z" transform="translate(-0.46)" style="fill:#1d1d1b"/><path d="M574.95,337.51l1.14,3.26a15,15,0,0,1,.47,1.49h0c.13-.48.3-1,.49-1.49l1.13-3.26h1.1l-2.28,5.8h-1l-2.21-5.8Z" transform="translate(-0.46)" style="fill:#1d1d1b"/><path d="M581.49,335.88a.65.65,0,0,1-1.31,0,.64.64,0,0,1,.66-.66A.63.63,0,0,1,581.49,335.88Zm-1.17,7.44v-5.8h1.05v5.8Z" transform="translate(-0.46)" style="fill:#1d1d1b"/><path d="M588.13,334.8v7c0,.52,0,1.1,0,1.5h-.95l0-1h0a2.15,2.15,0,0,1-2,1.14c-1.4,0-2.48-1.19-2.48-3,0-1.93,1.19-3.12,2.6-3.12a1.94,1.94,0,0,1,1.75.89h0V334.8Zm-1.06,5.07a1.85,1.85,0,0,0,0-.44,1.55,1.55,0,0,0-1.52-1.22c-1.09,0-1.74,1-1.74,2.24s.58,2.15,1.71,2.15a1.59,1.59,0,0,0,1.55-1.26,1.83,1.83,0,0,0,0-.46Z" transform="translate(-0.46)" style="fill:#1d1d1b"/><path d="M590.47,340.61a1.86,1.86,0,0,0,2,2,3.82,3.82,0,0,0,1.61-.3l.18.76a4.7,4.7,0,0,1-1.93.36,2.7,2.7,0,0,1-2.85-2.93c0-1.75,1-3.13,2.72-3.13a2.46,2.46,0,0,1,2.4,2.73,4,4,0,0,1,0,.49Zm3.09-.76a1.5,1.5,0,0,0-1.46-1.71,1.75,1.75,0,0,0-1.62,1.71Zm.25-4.85-1.46,1.72h-.75l1.06-1.72Z" transform="translate(-0.46)" style="fill:#1d1d1b"/><path d="M601.15,340.37a2.84,2.84,0,0,1-2.89,3.08,2.76,2.76,0,0,1-2.78-3,2.83,2.83,0,0,1,2.88-3.08A2.75,2.75,0,0,1,601.15,340.37Zm-4.61.06c0,1.27.73,2.23,1.76,2.23s1.76-.95,1.76-2.25c0-1-.49-2.23-1.74-2.23S596.55,339.32,596.55,340.42Z" transform="translate(-0.46)" style="fill:#1d1d1b"/><ellipse cx="664.07" cy="339.95" rx="44.38" ry="12.92" style="fill:#fff;stroke:#1d1d1b;stroke-miterlimit:10"/><path d="M644.22,339.53h-3.14v2.91h3.5v.88H640v-8.08h4.37v.88h-3.32v2.55h3.14Z" transform="translate(-0.46)" style="fill:#1d1d1b"/><path d="M649.49,343.32v-5h-2.43v5h-1v-5h-.82v-.8H646v-.19a2.74,2.74,0,0,1,.65-2,2,2,0,0,1,1.46-.54,1.86,1.86,0,0,1,.83.2l-.22.78a1.54,1.54,0,0,0-.62-.14c-.83,0-1.05.71-1.05,1.62v.25h2.43v-.28a2.74,2.74,0,0,1,.68-2,2,2,0,0,1,1.4-.54,2.4,2.4,0,0,1,.9.17l-.13.82a1.63,1.63,0,0,0-.68-.13c-.89,0-1.13.79-1.13,1.68v.31h1.4v.8h-1.39v5Z" transform="translate(-0.46)" style="fill:#1d1d1b"/><path d="M653.33,340.61a1.86,1.86,0,0,0,2,2,3.82,3.82,0,0,0,1.61-.3l.18.76a4.7,4.7,0,0,1-1.93.36,2.7,2.7,0,0,1-2.85-2.93c0-1.75,1-3.13,2.72-3.13a2.46,2.46,0,0,1,2.4,2.73,4,4,0,0,1,0,.49Zm3.09-.76a1.5,1.5,0,0,0-1.46-1.71,1.75,1.75,0,0,0-1.62,1.71Z" transform="translate(-0.46)" style="fill:#1d1d1b"/><path d="M660,335.84v1.67h1.51v.8H660v3.13c0,.72.2,1.13.79,1.13a2.39,2.39,0,0,0,.61-.07l0,.79a2.58,2.58,0,0,1-.94.14,1.46,1.46,0,0,1-1.14-.44,2.15,2.15,0,0,1-.41-1.51v-3.17h-.9v-.8h.9v-1.39Z" transform="translate(-0.46)" style="fill:#1d1d1b"/><path d="M665.67,337.51l1.14,3.26a15.1,15.1,0,0,1,.47,1.49h0c.13-.48.3-1,.49-1.49l1.13-3.26H670l-2.28,5.8h-1l-2.21-5.8Z" transform="translate(-0.46)" style="fill:#1d1d1b"/><path d="M672.21,335.88a.65.65,0,0,1-1.31,0,.64.64,0,0,1,.66-.66A.63.63,0,0,1,672.21,335.88ZM671,343.32v-5.8h1.05v5.8Z" transform="translate(-0.46)" style="fill:#1d1d1b"/><path d="M678.86,334.8v7c0,.52,0,1.1,0,1.5H678l0-1h0a2.15,2.15,0,0,1-2,1.14c-1.4,0-2.48-1.19-2.48-3,0-1.93,1.19-3.12,2.6-3.12a1.94,1.94,0,0,1,1.75.89h0V334.8Zm-1.06,5.07a1.85,1.85,0,0,0,0-.44,1.55,1.55,0,0,0-1.52-1.22c-1.09,0-1.74,1-1.74,2.24s.58,2.15,1.71,2.15a1.59,1.59,0,0,0,1.55-1.26,1.82,1.82,0,0,0,0-.46Z" transform="translate(-0.46)" style="fill:#1d1d1b"/><path d="M681.2,340.61a1.86,1.86,0,0,0,2,2,3.82,3.82,0,0,0,1.61-.3l.18.76a4.7,4.7,0,0,1-1.93.36,2.7,2.7,0,0,1-2.85-2.93c0-1.75,1-3.13,2.72-3.13a2.46,2.46,0,0,1,2.4,2.73,4,4,0,0,1,0,.49Zm3.09-.76a1.5,1.5,0,0,0-1.46-1.71,1.75,1.75,0,0,0-1.62,1.71Zm.25-4.84-1.46,1.71h-.75l1.06-1.71Z" transform="translate(-0.46)" style="fill:#1d1d1b"/><path d="M691.88,340.37a2.84,2.84,0,0,1-2.89,3.08,2.76,2.76,0,0,1-2.78-3,2.83,2.83,0,0,1,2.88-3.08A2.75,2.75,0,0,1,691.88,340.37Zm-4.61.06c0,1.27.73,2.23,1.76,2.23s1.76-.95,1.76-2.25c0-1-.49-2.23-1.74-2.23S687.27,339.32,687.27,340.43Z" transform="translate(-0.46)" style="fill:#1d1d1b"/><line x1="619.69" y1="339.95" x2="609.77" y2="339.95" style="fill:none;stroke:#1d1d1b;stroke-miterlimit:10"/><line x1="719.12" y1="339.95" x2="708.45" y2="339.95" style="fill:none;stroke:#1d1d1b;stroke-miterlimit:10"/><line x1="744.97" y1="277.57" x2="753.2" y2="277.57" style="fill:none;stroke:#1d1d1b;stroke-miterlimit:10"/><rect x="469.05" y="164.54" width="84.09" height="25.84" style="fill:#fff;stroke:#1d1d1b;stroke-miterlimit:10"/><path d="M477.72,172.75h1V180h3.45v.88h-4.5Z" transform="translate(-0.46)" style="fill:#1d1d1b"/><path d="M483.77,178.13a1.86,1.86,0,0,0,2,2,3.82,3.82,0,0,0,1.61-.3l.18.76a4.7,4.7,0,0,1-1.93.36,2.7,2.7,0,0,1-2.85-2.93c0-1.75,1-3.13,2.72-3.13a2.46,2.46,0,0,1,2.4,2.73,4,4,0,0,1,0,.49Zm3.09-.76a1.5,1.5,0,0,0-1.46-1.71,1.75,1.75,0,0,0-1.62,1.71Z" transform="translate(-0.46)" style="fill:#1d1d1b"/><path d="M493.33,180.62a3.89,3.89,0,0,1-1.67.34,2.76,2.76,0,0,1-2.89-3,3,3,0,0,1,3.12-3.08,3.53,3.53,0,0,1,1.46.3l-.24.82a2.45,2.45,0,0,0-1.22-.28,2.19,2.19,0,0,0,0,4.37,3,3,0,0,0,1.29-.29Z" transform="translate(-0.46)" style="fill:#1d1d1b"/><path d="M496,173.37V175h1.51v.8H496V179c0,.72.2,1.13.79,1.13a2.36,2.36,0,0,0,.61-.07l0,.79a2.58,2.58,0,0,1-.94.14,1.46,1.46,0,0,1-1.14-.44A2.15,2.15,0,0,1,495,179v-3.17h-.9V175h.9v-1.39Z" transform="translate(-0.46)" style="fill:#1d1d1b"/><path d="M499.21,178.13a1.86,1.86,0,0,0,2,2,3.82,3.82,0,0,0,1.61-.3l.18.76a4.7,4.7,0,0,1-1.93.36A2.7,2.7,0,0,1,498.2,178c0-1.75,1-3.13,2.72-3.13a2.46,2.46,0,0,1,2.4,2.73,4,4,0,0,1,0,.49Zm3.09-.76a1.5,1.5,0,0,0-1.46-1.71,1.75,1.75,0,0,0-1.62,1.71Z" transform="translate(-0.46)" style="fill:#1d1d1b"/><path d="M509.49,179.25c0,.6,0,1.13,0,1.58h-.94l-.06-.95h0A2.19,2.19,0,0,1,506.6,181c-.91,0-2-.5-2-2.54V175h1.05v3.21c0,1.1.34,1.85,1.3,1.85a1.49,1.49,0,0,0,1.49-1.5V175h1.05Z" transform="translate(-0.46)" style="fill:#1d1d1b"/><path d="M511.25,176.84c0-.68,0-1.27,0-1.81h.92l0,1.14h0a1.74,1.74,0,0,1,1.61-1.27,1.15,1.15,0,0,1,.3,0v1a1.59,1.59,0,0,0-.36,0,1.48,1.48,0,0,0-1.42,1.36,3,3,0,0,0,0,.49v3.09h-1Z" transform="translate(-0.46)" style="fill:#1d1d1b"/><path d="M518.12,175l1.14,3.26a15.06,15.06,0,0,1,.47,1.49h0c.13-.48.3-1,.49-1.49l1.13-3.26h1.1l-2.28,5.8h-1L517,175Z" transform="translate(-0.46)" style="fill:#1d1d1b"/><path d="M524.66,173.4a.65.65,0,0,1-1.31,0,.64.64,0,0,1,.66-.66A.63.63,0,0,1,524.66,173.4Zm-1.17,7.44V175h1.05v5.8Z" transform="translate(-0.46)" style="fill:#1d1d1b"/><path d="M531.31,172.32v7c0,.52,0,1.1,0,1.5h-.95l0-1h0a2.15,2.15,0,0,1-2,1.14c-1.4,0-2.48-1.19-2.48-3,0-1.93,1.19-3.12,2.6-3.12a1.94,1.94,0,0,1,1.75.89h0v-3.47Zm-1.06,5.07a1.85,1.85,0,0,0,0-.44,1.55,1.55,0,0,0-1.52-1.22c-1.09,0-1.74,1-1.74,2.24s.58,2.15,1.71,2.15a1.59,1.59,0,0,0,1.55-1.26,1.83,1.83,0,0,0,0-.46Z" transform="translate(-0.46)" style="fill:#1d1d1b"/><path d="M533.65,178.13a1.86,1.86,0,0,0,2,2,3.82,3.82,0,0,0,1.61-.3l.18.76a4.7,4.7,0,0,1-1.93.36,2.7,2.7,0,0,1-2.85-2.93c0-1.75,1-3.13,2.72-3.13a2.46,2.46,0,0,1,2.4,2.73,4,4,0,0,1,0,.49Zm3.09-.76a1.5,1.5,0,0,0-1.46-1.71,1.75,1.75,0,0,0-1.62,1.71Zm.25-4.85-1.46,1.72h-.75l1.06-1.72Z" transform="translate(-0.46)" style="fill:#1d1d1b"/><path d="M544.33,177.89a2.84,2.84,0,0,1-2.89,3.08,2.76,2.76,0,0,1-2.78-3,2.83,2.83,0,0,1,2.88-3.08A2.75,2.75,0,0,1,544.33,177.89Zm-4.61.06c0,1.27.73,2.23,1.76,2.23s1.76-.95,1.76-2.25c0-1-.49-2.23-1.74-2.23S539.72,176.84,539.72,177.95Z" transform="translate(-0.46)" style="fill:#1d1d1b"/><path d="M511.55,190.39c0,14.63,14.15,26.46,31.63,26.46" transform="translate(-0.46)" style="fill:none;stroke:#1d1d1b;stroke-miterlimit:10"/><path d="M511.55,190.39c0,31.08,14.15,56.24,31.63,56.24" transform="translate(-0.46)" style="fill:none;stroke:#1d1d1b;stroke-miterlimit:10"/><path d="M511.55,190.39c0,48.19,14.15,87.19,31.63,87.19" transform="translate(-0.46)" style="fill:none;stroke:#1d1d1b;stroke-miterlimit:10"/><path d="M511.55,190.39c0,64.65,14.15,117,31.63,117" transform="translate(-0.46)" style="fill:none;stroke:#1d1d1b;stroke-miterlimit:10"/><path d="M511.55,190.39c0,82.67,14.15,149.56,31.63,149.56" transform="translate(-0.46)" style="fill:none;stroke:#1d1d1b;stroke-miterlimit:10"/><rect x="465.32" y="115.79" width="91.55" height="25.84" style="fill:#fff;stroke:#1d1d1b;stroke-miterlimit:10"/><path d="M474,124.11a10.87,10.87,0,0,1,2-.17,3.31,3.31,0,0,1,2.34.66,2,2,0,0,1,.64,1.54,2.12,2.12,0,0,1-1.52,2.06v0a2,2,0,0,1,1.19,1.63,12.83,12.83,0,0,0,.62,2.22h-1.08a10.36,10.36,0,0,1-.54-1.93c-.24-1.12-.67-1.54-1.62-1.57h-1v3.5h-1Zm1,3.68h1.07c1.12,0,1.82-.61,1.82-1.54s-.76-1.5-1.86-1.51a4.3,4.3,0,0,0-1,.1Z" transform="translate(-0.46)" style="fill:#1d1d1b"/><path d="M481,129.37a1.86,1.86,0,0,0,2,2,3.82,3.82,0,0,0,1.61-.3l.18.76a4.7,4.7,0,0,1-1.93.36,2.7,2.7,0,0,1-2.85-2.93c0-1.75,1-3.13,2.72-3.13a2.46,2.46,0,0,1,2.4,2.73,4,4,0,0,1,0,.49Zm3.09-.76a1.5,1.5,0,0,0-1.46-1.71,1.75,1.75,0,0,0-1.62,1.71Zm.25-4.85-1.46,1.72h-.75l1.06-1.72Z" transform="translate(-0.46)" style="fill:#1d1d1b"/><path d="M490.61,131.87a3.89,3.89,0,0,1-1.67.34,2.76,2.76,0,0,1-2.89-3,3,3,0,0,1,3.12-3.08,3.53,3.53,0,0,1,1.46.3l-.24.82a2.45,2.45,0,0,0-1.22-.28,2.19,2.19,0,0,0,0,4.37,3,3,0,0,0,1.29-.29Z" transform="translate(-0.46)" style="fill:#1d1d1b"/><path d="M492.36,129.37a1.86,1.86,0,0,0,2,2,3.82,3.82,0,0,0,1.61-.3l.18.76a4.7,4.7,0,0,1-1.93.36,2.7,2.7,0,0,1-2.85-2.93c0-1.75,1-3.13,2.72-3.13a2.46,2.46,0,0,1,2.4,2.73,4,4,0,0,1,0,.49Zm3.09-.76A1.5,1.5,0,0,0,494,126.9a1.75,1.75,0,0,0-1.62,1.71Z" transform="translate(-0.46)" style="fill:#1d1d1b"/><path d="M497.79,128.18c0-.74,0-1.34,0-1.9h.95l0,1h0a2.28,2.28,0,0,1,2.06-1.13c1.4,0,2.46,1.19,2.46,3,0,2.09-1.27,3.12-2.64,3.12a2,2,0,0,1-1.79-.91h0v3.15h-1Zm1,1.55a2.42,2.42,0,0,0,0,.43,1.63,1.63,0,0,0,1.58,1.24c1.12,0,1.76-.91,1.76-2.24,0-1.16-.61-2.16-1.73-2.16a1.68,1.68,0,0,0-1.59,1.31,1.71,1.71,0,0,0-.07.43Z" transform="translate(-0.46)" style="fill:#1d1d1b"/><path d="M505.88,124.61v1.67h1.51v.8h-1.51v3.13c0,.72.2,1.13.79,1.13a2.36,2.36,0,0,0,.61-.07l0,.79a2.58,2.58,0,0,1-.94.14,1.46,1.46,0,0,1-1.14-.44,2.15,2.15,0,0,1-.41-1.51v-3.17H504v-.8h.9v-1.39Z" transform="translate(-0.46)" style="fill:#1d1d1b"/><path d="M509.76,124.65a.65.65,0,0,1-1.31,0,.64.64,0,0,1,.66-.66A.63.63,0,0,1,509.76,124.65Zm-1.17,7.44v-5.8h1.05v5.8Z" transform="translate(-0.46)" style="fill:#1d1d1b"/><path d="M516.65,129.13a2.84,2.84,0,0,1-2.89,3.08,2.76,2.76,0,0,1-2.78-3,2.83,2.83,0,0,1,2.88-3.08A2.75,2.75,0,0,1,516.65,129.13Zm-4.61.06c0,1.27.73,2.23,1.76,2.23s1.76-.95,1.76-2.25c0-1-.49-2.23-1.74-2.23S512,128.09,512,129.19Z" transform="translate(-0.46)" style="fill:#1d1d1b"/><path d="M518,127.85c0-.6,0-1.09,0-1.57h.94l.06,1h0a2.14,2.14,0,0,1,1.92-1.09c.8,0,2.05.48,2.05,2.47v3.47h-1.05v-3.35c0-.94-.35-1.71-1.34-1.71a1.5,1.5,0,0,0-1.42,1.08,1.52,1.52,0,0,0-.07.49v3.49H518Z" transform="translate(-0.46)" style="fill:#1d1d1b"/><path d="M534.13,128c0,2.78-1.69,4.26-3.75,4.26s-3.63-1.65-3.63-4.1,1.6-4.25,3.75-4.25S534.13,125.56,534.13,128Zm-6.27.13c0,1.73.94,3.27,2.58,3.27S533,129.84,533,128c0-1.61-.84-3.29-2.58-3.29S527.86,126.32,527.86,128.09Z" transform="translate(-0.46)" style="fill:#1d1d1b"/><path d="M535.34,130.81a3.7,3.7,0,0,0,1.87.53c1.07,0,1.69-.56,1.69-1.38s-.43-1.19-1.52-1.61c-1.32-.47-2.13-1.15-2.13-2.29a2.33,2.33,0,0,1,2.61-2.19,3.68,3.68,0,0,1,1.79.4l-.29.85a3.22,3.22,0,0,0-1.54-.38c-1.1,0-1.52.66-1.52,1.21,0,.76.49,1.13,1.61,1.56,1.37.53,2.06,1.19,2.06,2.38s-.92,2.33-2.83,2.33a4.17,4.17,0,0,1-2.06-.52Z" transform="translate(-0.46)" style="fill:#1d1d1b"/><path d="M547.05,131.82a5.18,5.18,0,0,1-2.13.38,3.78,3.78,0,0,1-4-4.09,4,4,0,0,1,4.22-4.25,4.33,4.33,0,0,1,1.92.36l-.25.85a3.81,3.81,0,0,0-1.63-.34,3,3,0,0,0-3.15,3.33,2.94,2.94,0,0,0,3.11,3.25,4.18,4.18,0,0,0,1.7-.34Z" transform="translate(-0.46)" style="fill:#1d1d1b"/><line x1="479.07" y1="142.45" x2="479.07" y2="164.54" style="fill:none;stroke:#1d1d1b;stroke-miterlimit:10"/><path d="M492.76,156.74a5.19,5.19,0,0,1-2.13.38,3.78,3.78,0,0,1-4-4.09,4,4,0,0,1,4.22-4.25,4.34,4.34,0,0,1,1.92.36l-.25.85a3.8,3.8,0,0,0-1.63-.34,3,3,0,0,0-3.15,3.33,2.94,2.94,0,0,0,3.11,3.25,4.18,4.18,0,0,0,1.7-.34Z" transform="translate(-0.46)" style="fill:#1d1d1b"/><path d="M499.16,154.06a2.84,2.84,0,0,1-2.89,3.08,2.76,2.76,0,0,1-2.78-3,2.83,2.83,0,0,1,2.88-3.08A2.75,2.75,0,0,1,499.16,154.06Zm-4.61.06c0,1.27.73,2.23,1.76,2.23s1.76-.95,1.76-2.25c0-1-.49-2.23-1.74-2.23S494.55,153,494.55,154.12Z" transform="translate(-0.46)" style="fill:#1d1d1b"/><path d="M500.49,152.77c0-.6,0-1.09,0-1.57h.92l0,.94h0a2,2,0,0,1,1.82-1.07,1.72,1.72,0,0,1,1.64,1.16h0a2.38,2.38,0,0,1,.65-.76,2,2,0,0,1,1.28-.41c.77,0,1.91.5,1.91,2.52V157h-1v-3.29c0-1.12-.41-1.79-1.26-1.79a1.36,1.36,0,0,0-1.25,1,1.71,1.71,0,0,0-.08.53V157h-1v-3.48c0-.92-.41-1.6-1.21-1.6a1.44,1.44,0,0,0-1.31,1.06,1.46,1.46,0,0,0-.08.52V157h-1Z" transform="translate(-0.46)" style="fill:#1d1d1b"/><path d="M510.5,152.77c0-.6,0-1.09,0-1.57h.92l0,.94h0a2,2,0,0,1,1.82-1.07,1.72,1.72,0,0,1,1.64,1.16h0a2.38,2.38,0,0,1,.65-.76,2,2,0,0,1,1.28-.41c.77,0,1.91.5,1.91,2.52V157h-1v-3.29c0-1.12-.41-1.79-1.26-1.79a1.36,1.36,0,0,0-1.25,1,1.71,1.71,0,0,0-.08.53V157h-1v-3.48c0-.92-.41-1.6-1.21-1.6a1.44,1.44,0,0,0-1.31,1.06,1.46,1.46,0,0,0-.08.52V157h-1Z" transform="translate(-0.46)" style="fill:#1d1d1b"/><path d="M523.72,157l-.08-.73h0a2.16,2.16,0,0,1-1.78.86,1.65,1.65,0,0,1-1.77-1.67c0-1.4,1.25-2.17,3.49-2.16v-.12a1.2,1.2,0,0,0-1.32-1.34,2.9,2.9,0,0,0-1.51.43l-.24-.7a3.59,3.59,0,0,1,1.91-.52c1.78,0,2.21,1.21,2.21,2.37v2.17a8.15,8.15,0,0,0,.1,1.39Zm-.16-3c-1.15,0-2.46.18-2.46,1.31a.93.93,0,0,0,1,1,1.44,1.44,0,0,0,1.4-1,1.07,1.07,0,0,0,.06-.34Z" transform="translate(-0.46)" style="fill:#1d1d1b"/><path d="M526.29,152.77c0-.6,0-1.09,0-1.57h.94l.06,1h0a2.13,2.13,0,0,1,1.92-1.09c.8,0,2.05.48,2.05,2.47V157h-1.05v-3.35c0-.94-.35-1.71-1.34-1.71a1.55,1.55,0,0,0-1.49,1.57V157h-1.05Z" transform="translate(-0.46)" style="fill:#1d1d1b"/><path d="M538,148.49v7c0,.52,0,1.1,0,1.5h-.95l0-1h0a2.15,2.15,0,0,1-2,1.14c-1.4,0-2.48-1.19-2.48-3,0-1.93,1.19-3.12,2.6-3.12a1.94,1.94,0,0,1,1.75.89h0v-3.47Zm-1.05,5.07a1.81,1.81,0,0,0,0-.44,1.55,1.55,0,0,0-1.52-1.22c-1.09,0-1.74,1-1.74,2.24s.58,2.15,1.71,2.15a1.58,1.58,0,0,0,1.55-1.26,1.78,1.78,0,0,0,0-.46Z" transform="translate(-0.46)" style="fill:#1d1d1b"/><path d="M540.31,154.3a1.86,1.86,0,0,0,2,2,3.82,3.82,0,0,0,1.61-.3l.18.76a4.71,4.71,0,0,1-1.93.36,2.7,2.7,0,0,1-2.85-2.93c0-1.75,1-3.13,2.72-3.13a2.46,2.46,0,0,1,2.4,2.73,4,4,0,0,1,0,.49Zm3.1-.76a1.5,1.5,0,0,0-1.46-1.71,1.75,1.75,0,0,0-1.62,1.71Z" transform="translate(-0.46)" style="fill:#1d1d1b"/><rect x="295.32" y="0.5" width="241.09" height="70.85" style="fill:#fff;stroke:#1d1d1b;stroke-miterlimit:10"/><path d="M353,50v8.08h-1V50Z" transform="translate(-0.46)" style="fill:#1d1d1b"/><path d="M354.88,53.85c0-.6,0-1.09,0-1.57h.94l.06,1h0a2.13,2.13,0,0,1,1.92-1.09c.8,0,2.05.48,2.05,2.47v3.47h-1.06V54.74c0-.94-.35-1.71-1.34-1.71A1.5,1.5,0,0,0,356,54.1a1.52,1.52,0,0,0-.07.49v3.49h-1.06Z" transform="translate(-0.46)" style="fill:#1d1d1b"/><path d="M362.77,50.61v1.67h1.51v.8h-1.51v3.13c0,.72.2,1.13.79,1.13a2.36,2.36,0,0,0,.61-.07l0,.79a2.58,2.58,0,0,1-.94.14,1.46,1.46,0,0,1-1.14-.44,2.15,2.15,0,0,1-.41-1.51V53.08h-.9v-.8h.9V50.89Z" transform="translate(-0.46)" style="fill:#1d1d1b"/><path d="M366,55.37a1.86,1.86,0,0,0,2,2,3.81,3.81,0,0,0,1.61-.3l.18.76a4.7,4.7,0,0,1-1.93.36A2.7,2.7,0,0,1,365,55.28c0-1.75,1-3.13,2.72-3.13a2.46,2.46,0,0,1,2.4,2.73,4,4,0,0,1,0,.49Zm3.09-.76a1.5,1.5,0,0,0-1.46-1.71A1.75,1.75,0,0,0,366,54.62Z" transform="translate(-0.46)" style="fill:#1d1d1b"/><path d="M371.41,54.09c0-.68,0-1.27,0-1.81h.92l0,1.14h0A1.74,1.74,0,0,1,374,52.15a1.14,1.14,0,0,1,.3,0v1a1.59,1.59,0,0,0-.36,0,1.48,1.48,0,0,0-1.42,1.36,3,3,0,0,0,0,.49v3.09h-1Z" transform="translate(-0.46)" style="fill:#1d1d1b"/><path d="M375.8,58.08v-5H375v-.8h.82V52a2.74,2.74,0,0,1,.67-2,2,2,0,0,1,1.42-.54,2.45,2.45,0,0,1,.9.17l-.14.82a1.57,1.57,0,0,0-.67-.13c-.9,0-1.13.79-1.13,1.68v.31h1.4v.8h-1.4v5Z" transform="translate(-0.46)" style="fill:#1d1d1b"/><path d="M382.41,58.08l-.08-.73h0a2.16,2.16,0,0,1-1.77.86,1.65,1.65,0,0,1-1.77-1.67c0-1.4,1.25-2.17,3.49-2.16v-.12a1.2,1.2,0,0,0-1.32-1.34,2.89,2.89,0,0,0-1.51.43l-.24-.7a3.6,3.6,0,0,1,1.91-.52c1.77,0,2.21,1.21,2.21,2.37v2.17a8.14,8.14,0,0,0,.1,1.39Zm-.16-3c-1.15,0-2.46.18-2.46,1.31a.93.93,0,0,0,1,1,1.44,1.44,0,0,0,1.4-1,1.11,1.11,0,0,0,.06-.34Z" transform="translate(-0.46)" style="fill:#1d1d1b"/><path d="M389.12,57.87a3.88,3.88,0,0,1-1.67.34,2.76,2.76,0,0,1-2.89-3,3,3,0,0,1,3.12-3.08,3.52,3.52,0,0,1,1.46.3l-.24.82a2.45,2.45,0,0,0-1.22-.28,2.19,2.19,0,0,0,0,4.37,3,3,0,0,0,1.3-.29Z" transform="translate(-0.46)" style="fill:#1d1d1b"/><path d="M390.87,55.37a1.86,1.86,0,0,0,2,2,3.81,3.81,0,0,0,1.61-.3l.18.76a4.7,4.7,0,0,1-1.93.36,2.7,2.7,0,0,1-2.85-2.93c0-1.75,1-3.13,2.72-3.13a2.46,2.46,0,0,1,2.4,2.73,4,4,0,0,1,0,.49Zm3.09-.76a1.5,1.5,0,0,0-1.46-1.71,1.75,1.75,0,0,0-1.62,1.71Z" transform="translate(-0.46)" style="fill:#1d1d1b"/><path d="M403.6,54.68v.72h-5.28v-.72Z" transform="translate(-0.46)" style="fill:#1d1d1b"/><path d="M410.32,55.23l-5.56,2.85v-.83l4.73-2.35v0l-4.73-2.35V51.7l5.56,2.85Z" transform="translate(-0.46)" style="fill:#1d1d1b"/><path d="M418.76,54.29h-3.14v2.91h3.5v.88h-4.54V50h4.37v.88h-3.32v2.55h3.14Z" transform="translate(-0.46)" style="fill:#1d1d1b"/><path d="M420.44,53.85c0-.6,0-1.09,0-1.57h.92l0,.94h0a2,2,0,0,1,1.82-1.07,1.72,1.72,0,0,1,1.64,1.16h0a2.38,2.38,0,0,1,.65-.76,2,2,0,0,1,1.28-.41c.77,0,1.91.5,1.91,2.52v3.42h-1V54.8c0-1.12-.41-1.79-1.26-1.79a1.37,1.37,0,0,0-1.25,1,1.74,1.74,0,0,0-.08.53v3.59h-1V54.61c0-.92-.41-1.6-1.21-1.6a1.44,1.44,0,0,0-1.31,1.06,1.46,1.46,0,0,0-.08.52v3.5h-1Z" transform="translate(-0.46)" style="fill:#1d1d1b"/><path d="M431.62,50.65a.65.65,0,0,1-1.31,0A.64.64,0,0,1,431,50,.63.63,0,0,1,431.62,50.65Zm-1.18,7.44v-5.8h1.06v5.8Z" transform="translate(-0.46)" style="fill:#1d1d1b"/><path d="M433.11,57a2.77,2.77,0,0,0,1.39.42c.77,0,1.13-.38,1.13-.86s-.3-.78-1.08-1.07c-1-.37-1.54-.95-1.54-1.64a1.79,1.79,0,0,1,2-1.7,2.9,2.9,0,0,1,1.43.36l-.26.77a2.26,2.26,0,0,0-1.19-.34c-.62,0-1,.36-1,.79s.35.7,1.1,1c1,.38,1.52.89,1.52,1.75,0,1-.79,1.74-2.17,1.74a3.31,3.31,0,0,1-1.63-.4Z" transform="translate(-0.46)" style="fill:#1d1d1b"/><path d="M437.86,57a2.77,2.77,0,0,0,1.39.42c.77,0,1.13-.38,1.13-.86s-.3-.78-1.08-1.07c-1-.37-1.54-.95-1.54-1.64a1.79,1.79,0,0,1,2-1.7,2.89,2.89,0,0,1,1.43.36l-.26.77a2.26,2.26,0,0,0-1.19-.34c-.62,0-1,.36-1,.79s.35.7,1.1,1c1,.38,1.52.89,1.52,1.75,0,1-.79,1.74-2.17,1.74a3.31,3.31,0,0,1-1.63-.4Z" transform="translate(-0.46)" style="fill:#1d1d1b"/><path d="M443.93,50.65a.65.65,0,0,1-1.31,0,.64.64,0,0,1,.66-.66A.63.63,0,0,1,443.93,50.65Zm-1.17,7.44v-5.8h1.05v5.8Z" transform="translate(-0.46)" style="fill:#1d1d1b"/><path d="M450.82,55.13a2.84,2.84,0,0,1-2.89,3.08,2.76,2.76,0,0,1-2.78-3A2.83,2.83,0,0,1,448,52.15,2.75,2.75,0,0,1,450.82,55.13Zm-4.61.06c0,1.27.73,2.23,1.76,2.23s1.76-.95,1.76-2.25c0-1-.49-2.23-1.74-2.23S446.21,54.09,446.21,55.19Z" transform="translate(-0.46)" style="fill:#1d1d1b"/><path d="M452.15,53.85c0-.6,0-1.09,0-1.57H453l.06,1h0A2.14,2.14,0,0,1,455,52.15c.8,0,2.05.48,2.05,2.47v3.47H456V54.74c0-.94-.35-1.71-1.34-1.71a1.5,1.5,0,0,0-1.42,1.08,1.52,1.52,0,0,0-.07.49v3.49h-1.05Z" transform="translate(-0.46)" style="fill:#1d1d1b"/><path d="M468.3,54c0,2.78-1.69,4.26-3.75,4.26s-3.63-1.65-3.63-4.1,1.6-4.25,3.75-4.25S468.3,51.56,468.3,54Zm-6.27.13c0,1.73.94,3.27,2.58,3.27s2.59-1.52,2.59-3.36c0-1.61-.84-3.29-2.58-3.29S462,52.32,462,54.09Z" transform="translate(-0.46)" style="fill:#1d1d1b"/><path d="M469.52,56.81a3.7,3.7,0,0,0,1.87.53c1.07,0,1.69-.56,1.69-1.38s-.43-1.19-1.52-1.61c-1.32-.47-2.13-1.15-2.13-2.29A2.33,2.33,0,0,1,472,49.87a3.68,3.68,0,0,1,1.79.4l-.29.85a3.22,3.22,0,0,0-1.54-.38c-1.1,0-1.52.66-1.52,1.21,0,.76.49,1.13,1.61,1.56,1.37.53,2.06,1.19,2.06,2.38s-.92,2.33-2.83,2.33a4.17,4.17,0,0,1-2.06-.52Z" transform="translate(-0.46)" style="fill:#1d1d1b"/><path d="M481.23,57.82a5.18,5.18,0,0,1-2.13.38,3.78,3.78,0,0,1-4-4.09,4,4,0,0,1,4.22-4.25,4.33,4.33,0,0,1,1.92.36l-.25.85a3.81,3.81,0,0,0-1.63-.34,3,3,0,0,0-3.15,3.33,2.94,2.94,0,0,0,3.11,3.25A4.18,4.18,0,0,0,481,57Z" transform="translate(-0.46)" style="fill:#1d1d1b"/><path d="M304.17,6.46v8.08h-1.83V6.46Z" transform="translate(-0.46)" style="fill:#1d1d1b"/><path d="M305.75,14.55V6.46h2.13l1.68,3a23.48,23.48,0,0,1,1.32,2.77h0a30,30,0,0,1-.16-3.37V6.46h1.68v8.08h-1.92l-1.73-3.12a30.19,30.19,0,0,1-1.4-2.85h0c0,1.07.07,2.21.07,3.53v2.43Z" transform="translate(-0.46)" style="fill:#1d1d1b"/><path d="M315.59,8h-2.17V6.46h6.21V8h-2.21v6.55h-1.83Z" transform="translate(-0.46)" style="fill:#1d1d1b"/><path d="M325.42,11.13h-3V13h3.32v1.5h-5.16V6.46h5V8h-3.15V9.64h3Z" transform="translate(-0.46)" style="fill:#1d1d1b"/><path d="M327,6.57a16,16,0,0,1,2.43-.17,4.12,4.12,0,0,1,2.61.64,2.05,2.05,0,0,1,.74,1.69,2.15,2.15,0,0,1-1.43,2v0a2,2,0,0,1,1.08,1.51c.25.91.5,2,.66,2.28h-1.87a10.11,10.11,0,0,1-.56-1.88c-.22-1-.56-1.28-1.31-1.3h-.55v3.18H327ZM328.83,10h.72c.91,0,1.45-.46,1.45-1.16s-.5-1.12-1.34-1.13a4.58,4.58,0,0,0-.83.06Z" transform="translate(-0.46)" style="fill:#1d1d1b"/><path d="M334.13,6.46h4.94V8H336V9.81h2.9V11.3H336v3.25h-1.83Z" transform="translate(-0.46)" style="fill:#1d1d1b"/><path d="M341.53,12.47,341,14.55h-1.89l2.47-8.08h2.4l2.51,8.08h-2l-.62-2.07Zm2.05-1.37-.5-1.72c-.14-.48-.29-1.08-.41-1.56h0c-.12.48-.24,1.09-.37,1.56l-.48,1.72Z" transform="translate(-0.46)" style="fill:#1d1d1b"/><path d="M353.16,14.32a5.21,5.21,0,0,1-2.08.35c-2.79,0-4.23-1.74-4.23-4a4.12,4.12,0,0,1,4.41-4.29,4.76,4.76,0,0,1,2,.36l-.37,1.45a3.94,3.94,0,0,0-1.54-.3,2.43,2.43,0,0,0-2.58,2.67,2.41,2.41,0,0,0,2.59,2.64,4.57,4.57,0,0,0,1.52-.26Z" transform="translate(-0.46)" style="fill:#1d1d1b"/><path d="M359.17,11.13h-3V13h3.32v1.5h-5.16V6.46h5V8H356.2V9.64h3Z" transform="translate(-0.46)" style="fill:#1d1d1b"/><line x1="479.07" y1="115.79" x2="441.43" y2="71.35" style="fill:none;stroke:#1d1d1b;stroke-miterlimit:10"/><rect x="13.99" y="175.9" width="84.81" height="25.84" style="fill:#fff;stroke:#1d1d1b;stroke-miterlimit:10"/><path d="M22.66,184.11h1v7.21h3.45v.88h-4.5Z" transform="translate(-0.46)" style="fill:#1d1d1b"/><path d="M28.71,189.48a1.86,1.86,0,0,0,2,2,3.82,3.82,0,0,0,1.61-.3l.18.76a4.7,4.7,0,0,1-1.93.36,2.7,2.7,0,0,1-2.85-2.93c0-1.75,1-3.13,2.72-3.13a2.46,2.46,0,0,1,2.4,2.73,4,4,0,0,1,0,.49Zm3.09-.76A1.5,1.5,0,0,0,30.34,187a1.75,1.75,0,0,0-1.62,1.71Z" transform="translate(-0.46)" style="fill:#1d1d1b"/><path d="M38.27,192a3.89,3.89,0,0,1-1.67.34,2.76,2.76,0,0,1-2.89-3,3,3,0,0,1,3.12-3.08,3.53,3.53,0,0,1,1.46.3l-.24.82a2.45,2.45,0,0,0-1.22-.28,2.19,2.19,0,0,0,0,4.37,3,3,0,0,0,1.29-.29Z" transform="translate(-0.46)" style="fill:#1d1d1b"/><path d="M40.94,184.72v1.67h1.51v.8H40.94v3.13c0,.72.2,1.13.79,1.13a2.36,2.36,0,0,0,.61-.07l0,.79a2.58,2.58,0,0,1-.94.14,1.46,1.46,0,0,1-1.14-.44,2.15,2.15,0,0,1-.41-1.51v-3.17H39v-.8h.9V185Z" transform="translate(-0.46)" style="fill:#1d1d1b"/><path d="M44.15,189.48a1.86,1.86,0,0,0,2,2,3.82,3.82,0,0,0,1.61-.3l.18.76a4.7,4.7,0,0,1-1.93.36,2.7,2.7,0,0,1-2.85-2.93c0-1.75,1-3.13,2.72-3.13a2.46,2.46,0,0,1,2.4,2.73,4,4,0,0,1,0,.49Zm3.09-.76A1.5,1.5,0,0,0,45.79,187a1.75,1.75,0,0,0-1.62,1.71Z" transform="translate(-0.46)" style="fill:#1d1d1b"/><path d="M54.44,190.61c0,.6,0,1.13,0,1.58h-.94l-.06-.95h0a2.19,2.19,0,0,1-1.92,1.08c-.91,0-2-.5-2-2.54v-3.39H50.6v3.21c0,1.1.34,1.85,1.3,1.85a1.49,1.49,0,0,0,1.49-1.5v-3.56h1.05Z" transform="translate(-0.46)" style="fill:#1d1d1b"/><path d="M56.19,188.2c0-.68,0-1.27,0-1.81h.92l0,1.14h0a1.74,1.74,0,0,1,1.61-1.27,1.15,1.15,0,0,1,.3,0v1a1.59,1.59,0,0,0-.36,0,1.48,1.48,0,0,0-1.42,1.36,3,3,0,0,0,0,.49v3.09h-1Z" transform="translate(-0.46)" style="fill:#1d1d1b"/><path d="M65.87,192.19l-.08-.73h0a2.16,2.16,0,0,1-1.78.86,1.65,1.65,0,0,1-1.77-1.67c0-1.4,1.25-2.17,3.49-2.16v-.12A1.2,1.2,0,0,0,64.37,187a2.9,2.9,0,0,0-1.51.43l-.24-.7a3.6,3.6,0,0,1,1.91-.52c1.78,0,2.21,1.21,2.21,2.37v2.17a8.25,8.25,0,0,0,.1,1.39Zm-.16-3c-1.15,0-2.46.18-2.46,1.31a.93.93,0,0,0,1,1,1.44,1.44,0,0,0,1.4-1,1.1,1.1,0,0,0,.06-.34Z" transform="translate(-0.46)" style="fill:#1d1d1b"/><path d="M73.3,190.61c0,.6,0,1.13,0,1.58h-.94l-.06-.95h0a2.19,2.19,0,0,1-1.92,1.08c-.91,0-2-.5-2-2.54v-3.39h1.05v3.21c0,1.1.34,1.85,1.3,1.85a1.49,1.49,0,0,0,1.49-1.5v-3.56H73.3Z" transform="translate(-0.46)" style="fill:#1d1d1b"/><path d="M80.07,183.68v7c0,.52,0,1.1,0,1.5h-.95l0-1h0a2.15,2.15,0,0,1-2,1.14c-1.4,0-2.48-1.19-2.48-3,0-1.93,1.19-3.12,2.6-3.12a1.94,1.94,0,0,1,1.75.89h0v-3.47ZM79,188.75a1.85,1.85,0,0,0,0-.44,1.55,1.55,0,0,0-1.52-1.22c-1.09,0-1.74,1-1.74,2.24s.58,2.15,1.71,2.15A1.59,1.59,0,0,0,79,190.21a1.83,1.83,0,0,0,0-.46Z" transform="translate(-0.46)" style="fill:#1d1d1b"/><path d="M83,184.76a.65.65,0,0,1-1.31,0,.64.64,0,0,1,.66-.66A.63.63,0,0,1,83,184.76Zm-1.17,7.44v-5.8h1.05v5.8Z" transform="translate(-0.46)" style="fill:#1d1d1b"/><path d="M89.88,189.24A2.84,2.84,0,0,1,87,192.32a2.76,2.76,0,0,1-2.78-3,2.83,2.83,0,0,1,2.88-3.08A2.75,2.75,0,0,1,89.88,189.24Zm-4.61.06c0,1.27.73,2.23,1.76,2.23s1.76-.95,1.76-2.25c0-1-.49-2.23-1.74-2.23S85.28,188.2,85.28,189.3Z" transform="translate(-0.46)" style="fill:#1d1d1b"/><rect x="67.81" y="138.7" width="88.96" height="25.84" style="fill:#fff;stroke:#1d1d1b;stroke-miterlimit:10"/><path d="M76.48,147a10.87,10.87,0,0,1,2-.17,3.31,3.31,0,0,1,2.34.66,2,2,0,0,1,.64,1.54,2.12,2.12,0,0,1-1.52,2.06v0a2,2,0,0,1,1.19,1.63,12.83,12.83,0,0,0,.62,2.22H80.67a10.36,10.36,0,0,1-.54-1.93c-.24-1.12-.67-1.54-1.62-1.57h-1V155h-1Zm1,3.68h1.07c1.12,0,1.82-.61,1.82-1.54s-.76-1.5-1.86-1.51a4.3,4.3,0,0,0-1,.1Z" transform="translate(-0.46)" style="fill:#1d1d1b"/><path d="M83.54,152.28a1.86,1.86,0,0,0,2,2,3.82,3.82,0,0,0,1.61-.3l.18.76a4.7,4.7,0,0,1-1.93.36,2.7,2.7,0,0,1-2.85-2.93c0-1.75,1-3.13,2.72-3.13a2.46,2.46,0,0,1,2.4,2.73,4,4,0,0,1,0,.49Zm3.09-.76a1.5,1.5,0,0,0-1.46-1.71,1.75,1.75,0,0,0-1.62,1.71Zm.25-4.85-1.46,1.72h-.75l1.06-1.72Z" transform="translate(-0.46)" style="fill:#1d1d1b"/><path d="M93.1,154.78a3.89,3.89,0,0,1-1.67.34,2.76,2.76,0,0,1-2.89-3,3,3,0,0,1,3.12-3.08,3.53,3.53,0,0,1,1.46.3l-.24.82a2.45,2.45,0,0,0-1.22-.28,2.19,2.19,0,0,0,0,4.37,3,3,0,0,0,1.29-.29Z" transform="translate(-0.46)" style="fill:#1d1d1b"/><path d="M94.86,152.28a1.86,1.86,0,0,0,2,2,3.82,3.82,0,0,0,1.61-.3l.18.76a4.7,4.7,0,0,1-1.93.36,2.7,2.7,0,0,1-2.85-2.93c0-1.75,1-3.13,2.72-3.13a2.46,2.46,0,0,1,2.4,2.73,4,4,0,0,1,0,.49Zm3.09-.76a1.5,1.5,0,0,0-1.46-1.71,1.75,1.75,0,0,0-1.62,1.71Z" transform="translate(-0.46)" style="fill:#1d1d1b"/><path d="M100.28,151.08c0-.74,0-1.34,0-1.9h.95l0,1h0a2.28,2.28,0,0,1,2.06-1.13c1.4,0,2.46,1.19,2.46,3,0,2.09-1.27,3.12-2.64,3.12a2,2,0,0,1-1.79-.91h0v3.15h-1Zm1,1.55a2.42,2.42,0,0,0,0,.43A1.63,1.63,0,0,0,103,154.3c1.12,0,1.76-.91,1.76-2.24,0-1.16-.61-2.16-1.73-2.16a1.68,1.68,0,0,0-1.59,1.31,1.71,1.71,0,0,0-.07.43Z" transform="translate(-0.46)" style="fill:#1d1d1b"/><path d="M108.38,147.52v1.67h1.51v.8h-1.51v3.13c0,.72.2,1.13.79,1.13a2.36,2.36,0,0,0,.61-.07l0,.79a2.58,2.58,0,0,1-.94.14,1.46,1.46,0,0,1-1.14-.44,2.15,2.15,0,0,1-.41-1.51V150h-.9v-.8h.9V147.8Z" transform="translate(-0.46)" style="fill:#1d1d1b"/><path d="M112.25,147.56a.65.65,0,0,1-1.31,0,.64.64,0,0,1,.66-.66A.63.63,0,0,1,112.25,147.56ZM111.08,155v-5.8h1.05V155Z" transform="translate(-0.46)" style="fill:#1d1d1b"/><path d="M119.14,152a2.84,2.84,0,0,1-2.89,3.08,2.76,2.76,0,0,1-2.78-3,2.83,2.83,0,0,1,2.88-3.08A2.75,2.75,0,0,1,119.14,152Zm-4.61.06c0,1.27.73,2.23,1.76,2.23s1.76-.95,1.76-2.25c0-1-.49-2.23-1.74-2.23S114.54,151,114.54,152.1Z" transform="translate(-0.46)" style="fill:#1d1d1b"/><path d="M120.48,150.76c0-.6,0-1.09,0-1.57h.94l.06,1h0a2.14,2.14,0,0,1,1.92-1.09c.8,0,2.05.48,2.05,2.47V155h-1.05v-3.35c0-.94-.35-1.71-1.34-1.71A1.5,1.5,0,0,0,121.6,151a1.52,1.52,0,0,0-.07.49V155h-1.05Z" transform="translate(-0.46)" style="fill:#1d1d1b"/><path d="M136.62,150.87c0,2.78-1.69,4.26-3.75,4.26s-3.63-1.65-3.63-4.1,1.6-4.25,3.75-4.25S136.62,148.47,136.62,150.87Zm-6.27.13c0,1.73.94,3.27,2.58,3.27s2.59-1.52,2.59-3.36c0-1.61-.84-3.29-2.58-3.29S130.35,149.23,130.35,151Z" transform="translate(-0.46)" style="fill:#1d1d1b"/><path d="M137.84,153.72a3.7,3.7,0,0,0,1.87.53c1.07,0,1.69-.56,1.69-1.38s-.43-1.19-1.52-1.61c-1.32-.47-2.13-1.15-2.13-2.29a2.33,2.33,0,0,1,2.61-2.19,3.68,3.68,0,0,1,1.79.4l-.29.85a3.22,3.22,0,0,0-1.54-.38c-1.1,0-1.52.66-1.52,1.21,0,.76.49,1.13,1.61,1.56,1.37.53,2.06,1.19,2.06,2.38s-.92,2.33-2.83,2.33a4.17,4.17,0,0,1-2.06-.52Z" transform="translate(-0.46)" style="fill:#1d1d1b"/><path d="M149.55,154.73a5.18,5.18,0,0,1-2.13.38,3.78,3.78,0,0,1-4-4.09,4,4,0,0,1,4.22-4.25,4.33,4.33,0,0,1,1.92.36l-.25.85a3.81,3.81,0,0,0-1.63-.34,3,3,0,0,0-3.15,3.33,2.94,2.94,0,0,0,3.11,3.25,4.18,4.18,0,0,0,1.7-.34Z" transform="translate(-0.46)" style="fill:#1d1d1b"/><rect x="176.82" y="175.9" width="42.14" height="25.84" style="fill:#fff;stroke:#1d1d1b;stroke-miterlimit:10"/><path d="M189.68,188.4h-3.14v2.91H190v.88h-4.55v-8.08h4.37V185h-3.32v2.55h3.14Z" transform="translate(-0.46)" style="fill:#1d1d1b"/><path d="M194.95,192.19v-5h-2.43v5h-1v-5h-.82v-.8h.82v-.19a2.74,2.74,0,0,1,.65-2,2,2,0,0,1,1.46-.54,1.86,1.86,0,0,1,.83.2l-.22.78a1.54,1.54,0,0,0-.62-.14c-.83,0-1.05.71-1.05,1.62v.25h2.43v-.28a2.74,2.74,0,0,1,.68-2,2,2,0,0,1,1.4-.54,2.4,2.4,0,0,1,.9.17l-.13.82a1.63,1.63,0,0,0-.68-.13c-.89,0-1.13.79-1.13,1.68v.31h1.4v.8H196v5Z" transform="translate(-0.46)" style="fill:#1d1d1b"/><path d="M198.79,189.48a1.86,1.86,0,0,0,2,2,3.82,3.82,0,0,0,1.61-.3l.18.76a4.7,4.7,0,0,1-1.93.36,2.7,2.7,0,0,1-2.85-2.93c0-1.75,1-3.13,2.72-3.13a2.46,2.46,0,0,1,2.4,2.73,4,4,0,0,1,0,.49Zm3.09-.76a1.5,1.5,0,0,0-1.46-1.71,1.75,1.75,0,0,0-1.62,1.71Z" transform="translate(-0.46)" style="fill:#1d1d1b"/><path d="M205.48,184.72v1.67H207v.8h-1.51v3.13c0,.72.2,1.13.79,1.13a2.36,2.36,0,0,0,.61-.07l0,.79a2.58,2.58,0,0,1-.94.14,1.46,1.46,0,0,1-1.14-.44,2.15,2.15,0,0,1-.41-1.51v-3.17h-.9v-.8h.9V185Z" transform="translate(-0.46)" style="fill:#1d1d1b"/><path d="M208,191.11a2.76,2.76,0,0,0,1.39.42c.77,0,1.13-.38,1.13-.86s-.3-.78-1.08-1.07c-1-.37-1.54-.95-1.54-1.64a1.79,1.79,0,0,1,2-1.7,2.89,2.89,0,0,1,1.43.36l-.26.77a2.26,2.26,0,0,0-1.19-.34c-.62,0-1,.36-1,.79s.35.7,1.1,1c1,.38,1.52.89,1.52,1.75,0,1-.79,1.74-2.17,1.74a3.31,3.31,0,0,1-1.63-.4Z" transform="translate(-0.46)" style="fill:#1d1d1b"/><rect x="252.28" y="288.1" width="97.6" height="25.84" style="fill:#fff;stroke:#1d1d1b;stroke-miterlimit:10"/><path d="M261,296.41a10.92,10.92,0,0,1,2-.17,3.31,3.31,0,0,1,2.34.66,2,2,0,0,1,.64,1.54,2.12,2.12,0,0,1-1.52,2.06v0a2,2,0,0,1,1.19,1.63,12.81,12.81,0,0,0,.62,2.22h-1.08a10.34,10.34,0,0,1-.54-1.93c-.24-1.12-.67-1.54-1.62-1.57h-1v3.5h-1Zm1,3.68h1.07c1.12,0,1.82-.61,1.82-1.54s-.76-1.5-1.86-1.51a4.3,4.3,0,0,0-1,.1Z" transform="translate(-0.46)" style="fill:#1d1d1b"/><path d="M268,301.68a1.86,1.86,0,0,0,2,2,3.82,3.82,0,0,0,1.61-.3l.18.76a4.7,4.7,0,0,1-1.93.36,2.7,2.7,0,0,1-2.85-2.93c0-1.75,1-3.13,2.72-3.13a2.46,2.46,0,0,1,2.4,2.73,4,4,0,0,1,0,.49Zm3.09-.76a1.5,1.5,0,0,0-1.46-1.71,1.75,1.75,0,0,0-1.62,1.71Zm.25-4.85-1.46,1.72h-.75l1.06-1.72Z" transform="translate(-0.46)" style="fill:#1d1d1b"/><path d="M277.57,304.17a3.88,3.88,0,0,1-1.67.34,2.76,2.76,0,0,1-2.89-3,3,3,0,0,1,3.12-3.08,3.54,3.54,0,0,1,1.46.3l-.24.82a2.45,2.45,0,0,0-1.22-.28,2.19,2.19,0,0,0,0,4.37,3,3,0,0,0,1.29-.29Z" transform="translate(-0.46)" style="fill:#1d1d1b"/><path d="M279.33,301.68a1.86,1.86,0,0,0,2,2,3.82,3.82,0,0,0,1.61-.3l.18.76a4.7,4.7,0,0,1-1.93.36,2.7,2.7,0,0,1-2.85-2.93c0-1.75,1-3.13,2.72-3.13a2.46,2.46,0,0,1,2.4,2.73,4,4,0,0,1,0,.49Zm3.09-.76a1.5,1.5,0,0,0-1.46-1.71,1.75,1.75,0,0,0-1.62,1.71Z" transform="translate(-0.46)" style="fill:#1d1d1b"/><path d="M284.75,300.48c0-.74,0-1.34,0-1.9h.95l0,1h0a2.28,2.28,0,0,1,2.06-1.13c1.4,0,2.46,1.19,2.46,3,0,2.09-1.27,3.12-2.64,3.12a2,2,0,0,1-1.79-.91h0v3.15h-1Zm1,1.55a2.42,2.42,0,0,0,0,.43,1.63,1.63,0,0,0,1.58,1.24c1.12,0,1.76-.91,1.76-2.24,0-1.16-.61-2.16-1.73-2.16a1.68,1.68,0,0,0-1.59,1.31,1.71,1.71,0,0,0-.07.43Z" transform="translate(-0.46)" style="fill:#1d1d1b"/><path d="M292.85,296.92v1.67h1.51v.8h-1.51v3.13c0,.72.2,1.13.79,1.13a2.34,2.34,0,0,0,.61-.07l0,.79a2.58,2.58,0,0,1-.94.14,1.46,1.46,0,0,1-1.14-.44,2.15,2.15,0,0,1-.41-1.51v-3.17h-.9v-.8h.9v-1.39Z" transform="translate(-0.46)" style="fill:#1d1d1b"/><path d="M296.73,297a.65.65,0,0,1-1.31,0,.64.64,0,0,1,.66-.66A.63.63,0,0,1,296.73,297Zm-1.17,7.44v-5.8h1.05v5.8Z" transform="translate(-0.46)" style="fill:#1d1d1b"/><path d="M303.61,301.44a2.84,2.84,0,0,1-2.89,3.08,2.76,2.76,0,0,1-2.78-3,2.83,2.83,0,0,1,2.88-3.08A2.75,2.75,0,0,1,303.61,301.44Zm-4.61.06c0,1.27.73,2.23,1.76,2.23s1.76-.95,1.76-2.25c0-1-.49-2.23-1.74-2.23S299,300.4,299,301.5Z" transform="translate(-0.46)" style="fill:#1d1d1b"/><path d="M304.95,300.16c0-.6,0-1.09,0-1.57h.94l.06,1h0a2.14,2.14,0,0,1,1.92-1.09c.8,0,2.05.48,2.05,2.47v3.47h-1.05V301c0-.94-.35-1.71-1.34-1.71a1.5,1.5,0,0,0-1.42,1.08,1.52,1.52,0,0,0-.07.49v3.49h-1.05Z" transform="translate(-0.46)" style="fill:#1d1d1b"/><path d="M315.49,301.85l-.84,2.54h-1.08l2.75-8.08h1.26l2.76,8.08h-1.12l-.86-2.54Zm2.65-.82-.79-2.33c-.18-.53-.3-1-.42-1.48h0c-.12.48-.25,1-.41,1.46l-.79,2.34Z" transform="translate(-0.46)" style="fill:#1d1d1b"/><path d="M326.21,302.81c0,.6,0,1.13,0,1.58h-.94l-.06-.95h0a2.18,2.18,0,0,1-1.92,1.08c-.91,0-2-.5-2-2.54v-3.39h1.05v3.21c0,1.1.34,1.85,1.3,1.85a1.49,1.49,0,0,0,1.49-1.5v-3.56h1.05Z" transform="translate(-0.46)" style="fill:#1d1d1b"/><path d="M333,295.87v7c0,.52,0,1.1,0,1.5h-.95l0-1h0a2.15,2.15,0,0,1-2,1.14c-1.4,0-2.48-1.19-2.48-3,0-1.93,1.19-3.12,2.6-3.12a1.94,1.94,0,0,1,1.75.89h0v-3.47Zm-1.06,5.07a1.85,1.85,0,0,0,0-.44,1.55,1.55,0,0,0-1.52-1.22c-1.09,0-1.74,1-1.74,2.24s.58,2.15,1.71,2.15a1.59,1.59,0,0,0,1.55-1.26,1.83,1.83,0,0,0,0-.46Z" transform="translate(-0.46)" style="fill:#1d1d1b"/><path d="M335.91,297a.65.65,0,0,1-1.31,0,.64.64,0,0,1,.66-.66A.63.63,0,0,1,335.91,297Zm-1.17,7.44v-5.8h1.05v5.8Z" transform="translate(-0.46)" style="fill:#1d1d1b"/><path d="M342.79,301.44a2.84,2.84,0,0,1-2.89,3.08,2.76,2.76,0,0,1-2.78-3,2.83,2.83,0,0,1,2.88-3.08A2.75,2.75,0,0,1,342.79,301.44Zm-4.61.06c0,1.27.73,2.23,1.76,2.23s1.76-.95,1.76-2.25c0-1-.49-2.23-1.74-2.23S338.19,300.4,338.19,301.5Z" transform="translate(-0.46)" style="fill:#1d1d1b"/><rect x="258.95" y="326.6" width="84.27" height="25.84" style="fill:#fff;stroke:#1d1d1b;stroke-miterlimit:10"/><path d="M268.93,340.35l-.84,2.54H267l2.75-8.08H271l2.76,8.08h-1.12l-.86-2.54Zm2.65-.82-.79-2.33c-.18-.53-.3-1-.42-1.47h0c-.12.48-.25,1-.41,1.46l-.79,2.34Z" transform="translate(-0.46)" style="fill:#1d1d1b"/><path d="M274.89,338.66c0-.6,0-1.09,0-1.57h.94l.06,1h0a2.14,2.14,0,0,1,1.92-1.09c.8,0,2.05.48,2.05,2.47v3.47h-1.05v-3.35c0-.94-.35-1.71-1.34-1.71a1.5,1.5,0,0,0-1.42,1.08,1.52,1.52,0,0,0-.07.49v3.49h-1.05Z" transform="translate(-0.46)" style="fill:#1d1d1b"/><path d="M284.77,342.89l-.08-.73h0a2.16,2.16,0,0,1-1.78.86,1.65,1.65,0,0,1-1.77-1.67c0-1.4,1.25-2.17,3.49-2.16v-.12a1.2,1.2,0,0,0-1.32-1.34,2.9,2.9,0,0,0-1.51.43l-.24-.7a3.59,3.59,0,0,1,1.91-.52c1.78,0,2.21,1.21,2.21,2.37v2.17a8.25,8.25,0,0,0,.1,1.39Zm-.16-3c-1.15,0-2.46.18-2.46,1.31a.93.93,0,0,0,1,1,1.44,1.44,0,0,0,1.4-1,1.1,1.1,0,0,0,.06-.34Z" transform="translate(-0.46)" style="fill:#1d1d1b"/><path d="M287.34,334.38h1.05v8.52h-1.05Z" transform="translate(-0.46)" style="fill:#1d1d1b"/><path d="M290.55,337.09l1.27,3.43c.13.38.28.84.37,1.19h0c.11-.35.23-.79.37-1.21l1.15-3.41h1.12l-1.58,4.14c-.75,2-1.27,3-2,3.63a2.86,2.86,0,0,1-1.3.68l-.26-.89a2.8,2.8,0,0,0,.92-.52,3.2,3.2,0,0,0,.89-1.18.76.76,0,0,0,.08-.25.92.92,0,0,0-.07-.28l-2.15-5.35Z" transform="translate(-0.46)" style="fill:#1d1d1b"/><path d="M295.6,341.81a2.76,2.76,0,0,0,1.39.42c.77,0,1.13-.38,1.13-.86s-.3-.78-1.08-1.07c-1-.37-1.54-.95-1.54-1.64a1.79,1.79,0,0,1,2-1.7,2.89,2.89,0,0,1,1.43.36l-.26.77a2.26,2.26,0,0,0-1.19-.34c-.62,0-1,.36-1,.79s.35.7,1.1,1c1,.38,1.52.89,1.52,1.75,0,1-.79,1.74-2.17,1.74a3.31,3.31,0,0,1-1.63-.4Z" transform="translate(-0.46)" style="fill:#1d1d1b"/><path d="M301.09,340.18a1.86,1.86,0,0,0,2,2,3.82,3.82,0,0,0,1.61-.3l.18.76a4.7,4.7,0,0,1-1.93.36,2.7,2.7,0,0,1-2.85-2.93c0-1.75,1-3.13,2.72-3.13a2.46,2.46,0,0,1,2.4,2.73,4,4,0,0,1,0,.49Zm3.09-.76a1.5,1.5,0,0,0-1.46-1.71,1.75,1.75,0,0,0-1.62,1.71Z" transform="translate(-0.46)" style="fill:#1d1d1b"/><path d="M310.4,340.35l-.84,2.54h-1.08l2.75-8.08h1.26l2.76,8.08h-1.12l-.86-2.54Zm2.65-.82-.79-2.33c-.18-.53-.3-1-.42-1.47h0c-.12.48-.25,1-.41,1.46l-.79,2.34Z" transform="translate(-0.46)" style="fill:#1d1d1b"/><path d="M321.11,341.31c0,.6,0,1.13,0,1.58h-.94l-.06-.95h0a2.19,2.19,0,0,1-1.92,1.08c-.91,0-2-.5-2-2.54v-3.39h1.05v3.21c0,1.1.34,1.85,1.3,1.85a1.49,1.49,0,0,0,1.49-1.5v-3.56h1.05Z" transform="translate(-0.46)" style="fill:#1d1d1b"/><path d="M327.88,334.38v7c0,.52,0,1.1,0,1.5H327l0-1h0a2.15,2.15,0,0,1-2,1.14c-1.4,0-2.48-1.19-2.48-3,0-1.93,1.19-3.12,2.6-3.12a1.94,1.94,0,0,1,1.75.89h0v-3.47Zm-1.06,5.07a1.85,1.85,0,0,0,0-.44,1.55,1.55,0,0,0-1.52-1.22c-1.09,0-1.74,1-1.74,2.24s.58,2.15,1.71,2.15a1.59,1.59,0,0,0,1.55-1.26,1.82,1.82,0,0,0,0-.46Z" transform="translate(-0.46)" style="fill:#1d1d1b"/><path d="M330.81,335.46a.65.65,0,0,1-1.31,0,.64.64,0,0,1,.66-.66A.63.63,0,0,1,330.81,335.46Zm-1.17,7.44v-5.8h1.05v5.8Z" transform="translate(-0.46)" style="fill:#1d1d1b"/><path d="M337.7,339.94a2.84,2.84,0,0,1-2.89,3.08,2.76,2.76,0,0,1-2.78-3A2.83,2.83,0,0,1,334.9,337,2.75,2.75,0,0,1,337.7,339.94Zm-4.61.06c0,1.27.73,2.23,1.76,2.23s1.76-.95,1.76-2.25c0-1-.49-2.23-1.74-2.23S333.09,338.9,333.09,340Z" transform="translate(-0.46)" style="fill:#1d1d1b"/><line x1="301.08" y1="313.94" x2="301.08" y2="326.6" style="fill:none;stroke:#1d1d1b;stroke-miterlimit:10"/><line x1="343.22" y1="339.52" x2="373.45" y2="339.52" style="fill:none;stroke:#1d1d1b;stroke-miterlimit:10"/><line x1="98.8" y1="196.82" x2="176.82" y2="196.82" style="fill:none;stroke:#1d1d1b;stroke-miterlimit:10"/><path d="M104.24,192.19v-5h-.82v-.8h.82v-.25a2.62,2.62,0,0,1,.82-2,2.76,2.76,0,0,1,1.86-.59,3.73,3.73,0,0,1,1.74.38v8.26h-1v-7.68a1.87,1.87,0,0,0-.86-.16c-1.1,0-1.46.8-1.46,1.74v.29h1.35v.8h-1.35v5Z" transform="translate(-0.46)" style="fill:#1d1d1b"/><path d="M115.26,190.61c0,.6,0,1.13,0,1.58h-.94l-.06-.95h0a2.19,2.19,0,0,1-1.92,1.08c-.91,0-2-.5-2-2.54v-3.39h1.05v3.21c0,1.1.34,1.85,1.3,1.85a1.49,1.49,0,0,0,1.49-1.5v-3.56h1.05Z" transform="translate(-0.46)" style="fill:#1d1d1b"/><path d="M117.51,186.39l.83,1.25c.22.32.4.62.59.95h0c.19-.35.38-.65.58-1l.82-1.24h1.14l-2,2.81,2,3h-1.2l-.85-1.31c-.23-.34-.42-.66-.62-1h0c-.19.35-.4.66-.61,1l-.84,1.31h-1.16l2.06-3-2-2.84Z" transform="translate(-0.46)" style="fill:#1d1d1b"/><path d="M128.33,192.19l-.08-.73h0a2.16,2.16,0,0,1-1.78.86,1.65,1.65,0,0,1-1.77-1.67c0-1.4,1.25-2.17,3.49-2.16v-.12a1.2,1.2,0,0,0-1.32-1.34,2.9,2.9,0,0,0-1.51.43l-.24-.7a3.6,3.6,0,0,1,1.91-.52c1.78,0,2.21,1.21,2.21,2.37v2.17a8.25,8.25,0,0,0,.1,1.39Zm-.16-3c-1.15,0-2.46.18-2.46,1.31a.93.93,0,0,0,1,1,1.44,1.44,0,0,0,1.4-1,1.1,1.1,0,0,0,.06-.34Z" transform="translate(-0.46)" style="fill:#1d1d1b"/><path d="M135.76,190.61c0,.6,0,1.13,0,1.58h-.94l-.06-.95h0a2.19,2.19,0,0,1-1.92,1.08c-.91,0-2-.5-2-2.54v-3.39h1.05v3.21c0,1.1.34,1.85,1.3,1.85a1.49,1.49,0,0,0,1.49-1.5v-3.56h1.05Z" transform="translate(-0.46)" style="fill:#1d1d1b"/><path d="M142.53,183.68v7c0,.52,0,1.1,0,1.5h-.95l0-1h0a2.15,2.15,0,0,1-2,1.14c-1.4,0-2.48-1.19-2.48-3,0-1.93,1.19-3.12,2.6-3.12a1.94,1.94,0,0,1,1.75.89h0v-3.47Zm-1.06,5.07a1.85,1.85,0,0,0,0-.44,1.55,1.55,0,0,0-1.52-1.22c-1.09,0-1.74,1-1.74,2.24s.58,2.15,1.71,2.15a1.59,1.59,0,0,0,1.55-1.26,1.83,1.83,0,0,0,0-.46Z" transform="translate(-0.46)" style="fill:#1d1d1b"/><path d="M145.46,184.76a.65.65,0,0,1-1.31,0,.64.64,0,0,1,.66-.66A.63.63,0,0,1,145.46,184.76Zm-1.17,7.44v-5.8h1.05v5.8Z" transform="translate(-0.46)" style="fill:#1d1d1b"/><path d="M152.34,189.24a2.84,2.84,0,0,1-2.89,3.08,2.76,2.76,0,0,1-2.78-3,2.83,2.83,0,0,1,2.88-3.08A2.75,2.75,0,0,1,152.34,189.24Zm-4.61.06c0,1.27.73,2.23,1.76,2.23s1.76-.95,1.76-2.25c0-1-.49-2.23-1.74-2.23S147.74,188.2,147.74,189.3Z" transform="translate(-0.46)" style="fill:#1d1d1b"/><path d="M161.24,183.68v7c0,.52,0,1.1,0,1.5h-.95l0-1h0a2.15,2.15,0,0,1-2,1.14c-1.4,0-2.48-1.19-2.48-3,0-1.93,1.19-3.12,2.6-3.12a1.94,1.94,0,0,1,1.75.89h0v-3.47Zm-1.06,5.07a1.85,1.85,0,0,0,0-.44,1.55,1.55,0,0,0-1.52-1.22c-1.09,0-1.74,1-1.74,2.24s.58,2.15,1.71,2.15a1.59,1.59,0,0,0,1.55-1.26,1.83,1.83,0,0,0,0-.46Z" transform="translate(-0.46)" style="fill:#1d1d1b"/><path d="M163,188.2c0-.68,0-1.27,0-1.81h.92l0,1.14h0a1.74,1.74,0,0,1,1.61-1.27,1.14,1.14,0,0,1,.3,0v1a1.59,1.59,0,0,0-.36,0,1.48,1.48,0,0,0-1.42,1.36,3,3,0,0,0,0,.49v3.09h-1Z" transform="translate(-0.46)" style="fill:#1d1d1b"/><path d="M167.6,186.39l1.27,3.43c.13.38.28.84.37,1.19h0c.11-.35.23-.79.37-1.21l1.15-3.41h1.12l-1.58,4.14c-.75,2-1.27,3-2,3.63a2.85,2.85,0,0,1-1.3.68l-.26-.89a2.8,2.8,0,0,0,.92-.52,3.2,3.2,0,0,0,.89-1.18.76.76,0,0,0,.08-.25.93.93,0,0,0-.07-.28l-2.15-5.35Z" transform="translate(-0.46)" style="fill:#1d1d1b"/><rect x="281.89" y="175.9" width="77.73" height="25.84" style="fill:#fff;stroke:#1d1d1b;stroke-miterlimit:10"/><path d="M294.75,188.4h-3.14v2.91h3.5v.88h-4.55v-8.08h4.37V185h-3.32v2.55h3.14Z" transform="translate(-0.46)" style="fill:#1d1d1b"/><path d="M296.43,188c0-.6,0-1.09,0-1.57h.94l.06,1h0a2.14,2.14,0,0,1,1.92-1.09c.8,0,2.05.48,2.05,2.47v3.47h-1.05v-3.35c0-.94-.35-1.71-1.34-1.71a1.5,1.5,0,0,0-1.42,1.08,1.52,1.52,0,0,0-.07.49v3.49h-1.05Z" transform="translate(-0.46)" style="fill:#1d1d1b"/><path d="M303.34,186.39l1.14,3.26a15.06,15.06,0,0,1,.47,1.49h0c.13-.48.3-1,.49-1.49l1.13-3.26h1.1l-2.28,5.8h-1l-2.21-5.8Z" transform="translate(-0.46)" style="fill:#1d1d1b"/><path d="M313.84,189.24a2.84,2.84,0,0,1-2.89,3.08,2.76,2.76,0,0,1-2.78-3,2.83,2.83,0,0,1,2.88-3.08A2.75,2.75,0,0,1,313.84,189.24Zm-4.61.06c0,1.27.73,2.23,1.76,2.23s1.76-.95,1.76-2.25c0-1-.49-2.23-1.74-2.23S309.23,188.2,309.23,189.3Z" transform="translate(-0.46)" style="fill:#1d1d1b"/><path d="M316.35,184.76a.65.65,0,0,1-1.31,0,.64.64,0,0,1,.66-.66A.63.63,0,0,1,316.35,184.76Zm-1.17,7.44v-5.8h1.05v5.8Z" transform="translate(-0.46)" style="fill:#1d1d1b"/><path d="M320.53,188.2c0-.68,0-1.27,0-1.81h.92l0,1.14h0a1.74,1.74,0,0,1,1.61-1.27,1.14,1.14,0,0,1,.3,0v1a1.59,1.59,0,0,0-.36,0,1.48,1.48,0,0,0-1.42,1.36,3,3,0,0,0,0,.49v3.09h-1Z" transform="translate(-0.46)" style="fill:#1d1d1b"/><path d="M324.92,189.48a1.86,1.86,0,0,0,2,2,3.82,3.82,0,0,0,1.61-.3l.18.76a4.7,4.7,0,0,1-1.93.36,2.7,2.7,0,0,1-2.85-2.93c0-1.75,1-3.13,2.72-3.13A2.46,2.46,0,0,1,329,189a4,4,0,0,1,0,.49Zm3.09-.76a1.5,1.5,0,0,0-1.46-1.71,1.75,1.75,0,0,0-1.62,1.71Zm.25-4.85-1.46,1.72H326l1.05-1.72Z" transform="translate(-0.46)" style="fill:#1d1d1b"/><path d="M330.2,191.11a2.76,2.76,0,0,0,1.39.42c.77,0,1.13-.38,1.13-.86s-.3-.78-1.08-1.07c-1-.37-1.54-.95-1.54-1.64a1.79,1.79,0,0,1,2-1.7,2.89,2.89,0,0,1,1.43.36l-.26.77a2.26,2.26,0,0,0-1.19-.34c-.62,0-1,.36-1,.79s.35.7,1.1,1c1,.38,1.52.89,1.52,1.75,0,1-.79,1.74-2.17,1.74a3.31,3.31,0,0,1-1.63-.4Z" transform="translate(-0.46)" style="fill:#1d1d1b"/><path d="M335.68,189.48a1.86,1.86,0,0,0,2,2,3.82,3.82,0,0,0,1.61-.3l.18.76a4.7,4.7,0,0,1-1.93.36,2.7,2.7,0,0,1-2.85-2.93c0-1.75,1-3.13,2.72-3.13a2.46,2.46,0,0,1,2.4,2.73,4,4,0,0,1,0,.49Zm3.09-.76a1.5,1.5,0,0,0-1.46-1.71,1.75,1.75,0,0,0-1.62,1.71Z" transform="translate(-0.46)" style="fill:#1d1d1b"/><path d="M344.32,192.19l-.08-.73h0a2.16,2.16,0,0,1-1.78.86,1.65,1.65,0,0,1-1.77-1.67c0-1.4,1.25-2.17,3.49-2.16v-.12a1.2,1.2,0,0,0-1.32-1.34,2.9,2.9,0,0,0-1.51.43l-.24-.7a3.6,3.6,0,0,1,1.91-.52c1.78,0,2.21,1.21,2.21,2.37v2.17a8.25,8.25,0,0,0,.1,1.39Zm-.16-3c-1.15,0-2.46.18-2.46,1.31a.93.93,0,0,0,1,1,1.44,1.44,0,0,0,1.4-1,1.1,1.1,0,0,0,.06-.34Z" transform="translate(-0.46)" style="fill:#1d1d1b"/><path d="M351.75,190.61c0,.6,0,1.13,0,1.58h-.94l-.06-.95h0a2.19,2.19,0,0,1-1.92,1.08c-.91,0-2-.5-2-2.54v-3.39h1.05v3.21c0,1.1.34,1.85,1.3,1.85a1.49,1.49,0,0,0,1.49-1.5v-3.56h1.05Z" transform="translate(-0.46)" style="fill:#1d1d1b"/><line x1="281.89" y1="196.82" x2="218.96" y2="196.82" style="fill:none;stroke:#1d1d1b;stroke-miterlimit:10"/><rect x="279.88" y="213.69" width="81.76" height="51.85" style="fill:#fff;stroke:#1d1d1b;stroke-miterlimit:10"/><path d="M295.36,238.43c-.06-1.13-.13-2.48-.12-3.49h0c-.28.95-.61,2-1,3.07l-1.43,3.92H292l-1.31-3.85c-.38-1.14-.71-2.18-.94-3.14h0c0,1-.08,2.36-.16,3.57l-.22,3.47h-1l.56-8.08h1.33l1.38,3.91c.34,1,.61,1.88.82,2.72h0c.2-.82.49-1.7.85-2.72l1.44-3.91h1.33l.5,8.08h-1Z" transform="translate(-0.46)" style="fill:#1d1d1b"/><path d="M299.48,234.55a.65.65,0,0,1-1.31,0,.64.64,0,0,1,.66-.66A.63.63,0,0,1,299.48,234.55ZM298.31,242v-5.8h1.05V242Z" transform="translate(-0.46)" style="fill:#1d1d1b"/><path d="M301.6,236.18l.83,1.25c.22.32.4.62.59.95h0c.19-.35.38-.65.58-1l.82-1.24h1.14l-2,2.81,2,3h-1.2l-.85-1.31c-.23-.34-.42-.66-.62-1h0c-.19.35-.4.66-.61,1L301.5,242h-1.16l2.06-3-2-2.84Z" transform="translate(-0.46)" style="fill:#1d1d1b"/><path d="M309.88,242l-.08-.73h0a2.16,2.16,0,0,1-1.78.86,1.65,1.65,0,0,1-1.77-1.67c0-1.4,1.25-2.17,3.49-2.16v-.12a1.2,1.2,0,0,0-1.32-1.34,2.9,2.9,0,0,0-1.51.43l-.24-.7a3.6,3.6,0,0,1,1.91-.52c1.78,0,2.21,1.21,2.21,2.37v2.17a8.25,8.25,0,0,0,.1,1.39Zm-.16-3c-1.15,0-2.46.18-2.46,1.31a.93.93,0,0,0,1,1,1.44,1.44,0,0,0,1.4-1,1.1,1.1,0,0,0,.06-.34Z" transform="translate(-0.46)" style="fill:#1d1d1b"/><path d="M317.45,236.18c0,.42,0,.89,0,1.6v3.37a3.34,3.34,0,0,1-.83,2.65,3.07,3.07,0,0,1-2.11.7,3.74,3.74,0,0,1-1.93-.48l.26-.8a3.27,3.27,0,0,0,1.7.46c1.08,0,1.87-.56,1.87-2V241h0a2.07,2.07,0,0,1-1.85,1,2.59,2.59,0,0,1-2.47-2.83,2.79,2.79,0,0,1,2.61-3.08,1.93,1.93,0,0,1,1.81,1h0l0-.88Zm-1.09,2.29a1.5,1.5,0,0,0-.06-.48,1.52,1.52,0,0,0-1.48-1.12c-1,0-1.73.85-1.73,2.19,0,1.14.58,2.09,1.71,2.09a1.54,1.54,0,0,0,1.46-1.08,1.82,1.82,0,0,0,.08-.56Z" transform="translate(-0.46)" style="fill:#1d1d1b"/><path d="M319.75,239.27a1.86,1.86,0,0,0,2,2,3.82,3.82,0,0,0,1.61-.3l.18.76a4.7,4.7,0,0,1-1.93.36,2.7,2.7,0,0,1-2.85-2.93c0-1.75,1-3.13,2.72-3.13a2.46,2.46,0,0,1,2.4,2.73,4,4,0,0,1,0,.49Zm3.09-.76a1.5,1.5,0,0,0-1.46-1.71,1.75,1.75,0,0,0-1.62,1.71Z" transform="translate(-0.46)" style="fill:#1d1d1b"/><path d="M330.93,242l-.08-.73h0a2.16,2.16,0,0,1-1.78.86,1.65,1.65,0,0,1-1.77-1.67c0-1.4,1.25-2.17,3.49-2.16v-.12a1.2,1.2,0,0,0-1.32-1.34,2.9,2.9,0,0,0-1.51.43l-.24-.7a3.6,3.6,0,0,1,1.91-.52c1.78,0,2.21,1.21,2.21,2.37v2.17a8.25,8.25,0,0,0,.1,1.39Zm-.16-3c-1.15,0-2.46.18-2.46,1.31a.93.93,0,0,0,1,1,1.44,1.44,0,0,0,1.4-1,1.1,1.1,0,0,0,.06-.34Z" transform="translate(-0.46)" style="fill:#1d1d1b"/><path d="M338.36,240.4c0,.6,0,1.13,0,1.58h-.94l-.06-.95h0a2.19,2.19,0,0,1-1.92,1.08c-.91,0-2-.5-2-2.54v-3.39h1.05v3.21c0,1.1.34,1.85,1.3,1.85a1.49,1.49,0,0,0,1.49-1.5v-3.56h1.05Z" transform="translate(-0.46)" style="fill:#1d1d1b"/><path d="M345.13,233.47v7c0,.52,0,1.1,0,1.5h-.95l0-1h0a2.15,2.15,0,0,1-2,1.14c-1.4,0-2.48-1.19-2.48-3,0-1.93,1.19-3.12,2.6-3.12a1.94,1.94,0,0,1,1.75.89h0v-3.47Zm-1.06,5.07a1.85,1.85,0,0,0,0-.44,1.55,1.55,0,0,0-1.52-1.22c-1.09,0-1.74,1-1.74,2.24s.58,2.15,1.71,2.15A1.59,1.59,0,0,0,344,240a1.83,1.83,0,0,0,0-.46Z" transform="translate(-0.46)" style="fill:#1d1d1b"/><path d="M348.06,234.55a.65.65,0,0,1-1.31,0,.64.64,0,0,1,.66-.66A.63.63,0,0,1,348.06,234.55ZM346.88,242v-5.8h1.05V242Z" transform="translate(-0.46)" style="fill:#1d1d1b"/><path d="M354.94,239a2.84,2.84,0,0,1-2.89,3.08,2.76,2.76,0,0,1-2.78-3,2.83,2.83,0,0,1,2.88-3.08A2.75,2.75,0,0,1,354.94,239Zm-4.61.06c0,1.27.73,2.23,1.76,2.23s1.76-.95,1.76-2.25c0-1-.49-2.23-1.74-2.23S350.34,238,350.34,239.09Z" transform="translate(-0.46)" style="fill:#1d1d1b"/><line x1="320.76" y1="201.74" x2="320.76" y2="213.69" style="fill:none;stroke:#1d1d1b;stroke-miterlimit:10"/><path d="M226,175.9v-5h-.82v-.8H226v-.25a2.62,2.62,0,0,1,.82-2,2.76,2.76,0,0,1,1.86-.59,3.73,3.73,0,0,1,1.74.38v8.26h-1v-7.68a1.87,1.87,0,0,0-.86-.16c-1.1,0-1.46.8-1.46,1.74v.29h1.35v.8h-1.35v5Z" transform="translate(-0.46)" style="fill:#1d1d1b"/><path d="M237,174.32c0,.6,0,1.13,0,1.58h-.94l-.06-.95h0a2.19,2.19,0,0,1-1.92,1.08c-.91,0-2-.5-2-2.54V170.1h1.05v3.21c0,1.1.34,1.85,1.3,1.85a1.49,1.49,0,0,0,1.49-1.5V170.1H237Z" transform="translate(-0.46)" style="fill:#1d1d1b"/><path d="M239.28,170.1l.83,1.25c.22.32.4.62.59.95h0c.19-.35.38-.65.58-1l.82-1.24h1.14l-2,2.81,2,3h-1.2l-.85-1.31c-.23-.34-.42-.66-.62-1h0c-.19.35-.4.66-.61,1l-.84,1.31H238l2.06-3-2-2.84Z" transform="translate(-0.46)" style="fill:#1d1d1b"/><path d="M250.11,175.9l-.08-.73h0a2.16,2.16,0,0,1-1.78.86,1.65,1.65,0,0,1-1.77-1.67c0-1.4,1.25-2.17,3.49-2.16v-.12a1.2,1.2,0,0,0-1.32-1.34,2.9,2.9,0,0,0-1.51.43l-.24-.7a3.6,3.6,0,0,1,1.91-.52c1.78,0,2.21,1.21,2.21,2.37v2.17a8.25,8.25,0,0,0,.1,1.39Zm-.16-3c-1.15,0-2.46.18-2.46,1.31a.93.93,0,0,0,1,1,1.44,1.44,0,0,0,1.4-1,1.1,1.1,0,0,0,.06-.34Z" transform="translate(-0.46)" style="fill:#1d1d1b"/><path d="M257.53,174.32c0,.6,0,1.13,0,1.58h-.94l-.06-.95h0a2.19,2.19,0,0,1-1.92,1.08c-.91,0-2-.5-2-2.54V170.1h1.05v3.21c0,1.1.34,1.85,1.3,1.85a1.49,1.49,0,0,0,1.49-1.5V170.1h1.05Z" transform="translate(-0.46)" style="fill:#1d1d1b"/><path d="M264.3,167.39v7c0,.52,0,1.1,0,1.5h-.95l0-1h0a2.15,2.15,0,0,1-2,1.14c-1.4,0-2.48-1.19-2.48-3,0-1.93,1.19-3.12,2.6-3.12a1.94,1.94,0,0,1,1.75.89h0v-3.47Zm-1.06,5.07a1.85,1.85,0,0,0,0-.44,1.55,1.55,0,0,0-1.52-1.22c-1.09,0-1.74,1-1.74,2.24s.58,2.15,1.71,2.15a1.59,1.59,0,0,0,1.55-1.26,1.83,1.83,0,0,0,0-.46Z" transform="translate(-0.46)" style="fill:#1d1d1b"/><path d="M267.23,168.46a.65.65,0,0,1-1.31,0,.64.64,0,0,1,.66-.66A.63.63,0,0,1,267.23,168.46Zm-1.17,7.44v-5.8h1.05v5.8Z" transform="translate(-0.46)" style="fill:#1d1d1b"/><path d="M274.12,173a2.84,2.84,0,0,1-2.89,3.08,2.76,2.76,0,0,1-2.78-3,2.83,2.83,0,0,1,2.88-3.08A2.75,2.75,0,0,1,274.12,173Zm-4.61.06c0,1.27.73,2.23,1.76,2.23S273,174.29,273,173c0-1-.49-2.23-1.74-2.23S269.51,171.91,269.51,173Z" transform="translate(-0.46)" style="fill:#1d1d1b"/><path d="M226.32,184.5l.77,3c.17.65.32,1.25.43,1.85h0c.13-.59.32-1.21.52-1.83l.95-3h.89l.9,2.9c.22.7.38,1.31.52,1.9h0a17.52,17.52,0,0,1,.44-1.88l.83-2.91h1l-1.87,5.8h-1l-.89-2.77a19.17,19.17,0,0,1-.52-1.91h0a17.3,17.3,0,0,1-.53,1.92L228,190.3h-1l-1.75-5.8Z" transform="translate(-0.46)" style="fill:#1d1d1b"/><path d="M235.2,187.59a1.86,1.86,0,0,0,2,2,3.82,3.82,0,0,0,1.61-.3l.18.76a4.7,4.7,0,0,1-1.93.36,2.7,2.7,0,0,1-2.85-2.93c0-1.75,1-3.13,2.72-3.13a2.46,2.46,0,0,1,2.4,2.73,4,4,0,0,1,0,.49Zm3.09-.76a1.5,1.5,0,0,0-1.46-1.71,1.75,1.75,0,0,0-1.62,1.71Z" transform="translate(-0.46)" style="fill:#1d1d1b"/><path d="M241.9,182.83v1.67h1.51v.8H241.9v3.13c0,.72.2,1.13.79,1.13a2.36,2.36,0,0,0,.61-.07l0,.79a2.58,2.58,0,0,1-.94.14,1.46,1.46,0,0,1-1.14-.44,2.15,2.15,0,0,1-.41-1.51V185.3H240v-.8h.9V183.1Z" transform="translate(-0.46)" style="fill:#1d1d1b"/><path d="M294.67,168.95a3.89,3.89,0,0,1-1.67.34,2.76,2.76,0,0,1-2.89-3,3,3,0,0,1,3.12-3.08,3.53,3.53,0,0,1,1.46.3l-.24.82a2.45,2.45,0,0,0-1.22-.28,2.19,2.19,0,0,0,0,4.37,3,3,0,0,0,1.29-.29Z" transform="translate(-0.46)" style="fill:#1d1d1b"/><path d="M301.08,166.21a2.84,2.84,0,0,1-2.89,3.08,2.76,2.76,0,0,1-2.78-3,2.83,2.83,0,0,1,2.88-3.08A2.75,2.75,0,0,1,301.08,166.21Zm-4.61.06c0,1.27.73,2.23,1.76,2.23s1.76-.95,1.76-2.25c0-1-.49-2.23-1.74-2.23S296.48,165.17,296.48,166.27Z" transform="translate(-0.46)" style="fill:#1d1d1b"/><path d="M302.42,164.93c0-.6,0-1.09,0-1.57h.92l0,.94h0a2,2,0,0,1,1.82-1.07,1.72,1.72,0,0,1,1.64,1.16h0a2.38,2.38,0,0,1,.65-.76,2,2,0,0,1,1.28-.41c.77,0,1.91.5,1.91,2.52v3.42h-1v-3.29c0-1.12-.41-1.79-1.26-1.79a1.37,1.37,0,0,0-1.25,1,1.74,1.74,0,0,0-.08.53v3.59h-1v-3.48c0-.92-.41-1.6-1.21-1.6a1.57,1.57,0,0,0-1.39,1.57v3.5h-1Z" transform="translate(-0.46)" style="fill:#1d1d1b"/><path d="M312.43,164.93c0-.6,0-1.09,0-1.57h.92l0,.94h0a2,2,0,0,1,1.82-1.07,1.72,1.72,0,0,1,1.64,1.16h0a2.38,2.38,0,0,1,.65-.76,2,2,0,0,1,1.28-.41c.77,0,1.91.5,1.91,2.52v3.42h-1v-3.29c0-1.12-.41-1.79-1.26-1.79a1.37,1.37,0,0,0-1.25,1,1.74,1.74,0,0,0-.08.53v3.59h-1v-3.48c0-.92-.41-1.6-1.21-1.6a1.57,1.57,0,0,0-1.39,1.57v3.5h-1Z" transform="translate(-0.46)" style="fill:#1d1d1b"/><path d="M325.65,169.16l-.08-.73h0a2.16,2.16,0,0,1-1.78.86,1.65,1.65,0,0,1-1.77-1.67c0-1.4,1.25-2.17,3.49-2.16v-.12a1.2,1.2,0,0,0-1.32-1.34,2.9,2.9,0,0,0-1.51.43l-.24-.7a3.6,3.6,0,0,1,1.91-.52c1.78,0,2.21,1.21,2.21,2.37v2.17a8.25,8.25,0,0,0,.1,1.39Zm-.16-3c-1.15,0-2.46.18-2.46,1.31a.93.93,0,0,0,1,1,1.44,1.44,0,0,0,1.4-1,1.1,1.1,0,0,0,.06-.34Z" transform="translate(-0.46)" style="fill:#1d1d1b"/><path d="M328.22,164.93c0-.6,0-1.09,0-1.57h.94l.06,1h0a2.14,2.14,0,0,1,1.92-1.09c.8,0,2.05.48,2.05,2.47v3.47H332.1v-3.35c0-.94-.35-1.71-1.34-1.71a1.5,1.5,0,0,0-1.42,1.08,1.52,1.52,0,0,0-.07.49v3.49h-1.05Z" transform="translate(-0.46)" style="fill:#1d1d1b"/><path d="M339.89,160.65v7c0,.52,0,1.1,0,1.5H339l0-1h0a2.15,2.15,0,0,1-2,1.14c-1.4,0-2.48-1.19-2.48-3,0-1.93,1.19-3.12,2.6-3.12a1.94,1.94,0,0,1,1.75.89h0v-3.47Zm-1.06,5.07a1.85,1.85,0,0,0,0-.44,1.55,1.55,0,0,0-1.52-1.22c-1.09,0-1.74,1-1.74,2.24s.58,2.15,1.71,2.15a1.59,1.59,0,0,0,1.55-1.26,1.83,1.83,0,0,0,0-.46Z" transform="translate(-0.46)" style="fill:#1d1d1b"/><path d="M342.23,166.45a1.86,1.86,0,0,0,2,2,3.82,3.82,0,0,0,1.61-.3l.18.76a4.7,4.7,0,0,1-1.93.36,2.7,2.7,0,0,1-2.85-2.93c0-1.75,1-3.13,2.72-3.13a2.46,2.46,0,0,1,2.4,2.73,4,4,0,0,1,0,.49Zm3.09-.76a1.5,1.5,0,0,0-1.46-1.71,1.75,1.75,0,0,0-1.62,1.71Z" transform="translate(-0.46)" style="fill:#1d1d1b"/><path d="M347.52,168.08a2.76,2.76,0,0,0,1.39.42c.77,0,1.13-.38,1.13-.86s-.3-.78-1.08-1.07c-1-.37-1.54-.95-1.54-1.64a1.79,1.79,0,0,1,2-1.7,2.89,2.89,0,0,1,1.43.36l-.26.77a2.26,2.26,0,0,0-1.19-.34c-.62,0-1,.36-1,.79s.35.7,1.1,1c1,.38,1.52.89,1.52,1.75,0,1-.79,1.74-2.17,1.74a3.31,3.31,0,0,1-1.63-.4Z" transform="translate(-0.46)" style="fill:#1d1d1b"/><path d="M25,209.78c0-.74,0-1.34,0-1.9h.95l0,1h0a2.28,2.28,0,0,1,2.06-1.13c1.4,0,2.46,1.19,2.46,3,0,2.09-1.27,3.12-2.64,3.12a2,2,0,0,1-1.79-.91h0v3.15H25Zm1,1.55a2.42,2.42,0,0,0,0,.43A1.63,1.63,0,0,0,27.71,213c1.12,0,1.76-.91,1.76-2.24,0-1.16-.61-2.16-1.73-2.16a1.68,1.68,0,0,0-1.59,1.31,1.71,1.71,0,0,0-.07.43Z" transform="translate(-0.46)" style="fill:#1d1d1b"/><path d="M31.86,205.18h1.05v8.52H31.86Z" transform="translate(-0.46)" style="fill:#1d1d1b"/><path d="M37.91,213.69l-.08-.73h0a2.16,2.16,0,0,1-1.78.86,1.65,1.65,0,0,1-1.77-1.67c0-1.4,1.25-2.17,3.49-2.16v-.12a1.2,1.2,0,0,0-1.32-1.34,2.9,2.9,0,0,0-1.51.43l-.24-.7a3.6,3.6,0,0,1,1.91-.52c1.78,0,2.21,1.21,2.21,2.37v2.17a8.25,8.25,0,0,0,.1,1.39Zm-.16-3c-1.15,0-2.46.18-2.46,1.31a.93.93,0,0,0,1,1,1.44,1.44,0,0,0,1.4-1,1.1,1.1,0,0,0,.06-.34Z" transform="translate(-0.46)" style="fill:#1d1d1b"/><path d="M40.76,207.89,42,211.32c.13.38.28.84.37,1.19h0c.11-.35.23-.79.37-1.21L44,207.89h1.12L43.49,212c-.75,2-1.27,3-2,3.63a2.86,2.86,0,0,1-1.3.68l-.26-.89a2.8,2.8,0,0,0,.92-.52,3.2,3.2,0,0,0,.89-1.18.76.76,0,0,0,.08-.25.93.93,0,0,0-.07-.28l-2.15-5.35Z" transform="translate(-0.46)" style="fill:#1d1d1b"/><path d="M47.69,214.17l3.35-8.7h.82l-3.36,8.7Z" transform="translate(-0.46)" style="fill:#1d1d1b"/><path d="M55.24,209.78c0-.74,0-1.34,0-1.9h.95l0,1h0a2.28,2.28,0,0,1,2.06-1.13c1.4,0,2.46,1.19,2.46,3,0,2.09-1.27,3.12-2.64,3.12a2,2,0,0,1-1.79-.91h0v3.15h-1Zm1,1.55a2.42,2.42,0,0,0,0,.43A1.63,1.63,0,0,0,57.91,213c1.12,0,1.76-.91,1.76-2.24,0-1.16-.61-2.16-1.73-2.16a1.68,1.68,0,0,0-1.59,1.31,1.71,1.71,0,0,0-.07.43Z" transform="translate(-0.46)" style="fill:#1d1d1b"/><path d="M65.28,213.69l-.08-.73h0a2.16,2.16,0,0,1-1.78.86,1.65,1.65,0,0,1-1.77-1.67c0-1.4,1.25-2.17,3.49-2.16v-.12a1.2,1.2,0,0,0-1.32-1.34,2.9,2.9,0,0,0-1.51.43l-.24-.7a3.6,3.6,0,0,1,1.91-.52c1.78,0,2.21,1.21,2.21,2.37v2.17a8.25,8.25,0,0,0,.1,1.39Zm-.16-3c-1.15,0-2.46.18-2.46,1.31a.93.93,0,0,0,1,1,1.44,1.44,0,0,0,1.4-1,1.1,1.1,0,0,0,.06-.34Z" transform="translate(-0.46)" style="fill:#1d1d1b"/><path d="M72.71,212.11c0,.6,0,1.13,0,1.58h-.94l-.06-.95h0a2.19,2.19,0,0,1-1.92,1.08c-.91,0-2-.5-2-2.54v-3.39h1.05v3.21c0,1.1.34,1.85,1.3,1.85a1.49,1.49,0,0,0,1.49-1.5v-3.56h1.05Z" transform="translate(-0.46)" style="fill:#1d1d1b"/><path d="M74.32,212.61a2.76,2.76,0,0,0,1.39.42c.77,0,1.13-.38,1.13-.86s-.3-.78-1.08-1.07c-1-.37-1.54-.95-1.54-1.64a1.79,1.79,0,0,1,2-1.7,2.89,2.89,0,0,1,1.43.36l-.26.77a2.26,2.26,0,0,0-1.19-.34c-.62,0-1,.36-1,.79s.35.7,1.1,1c1,.38,1.52.89,1.52,1.75,0,1-.79,1.74-2.17,1.74a3.31,3.31,0,0,1-1.63-.4Z" transform="translate(-0.46)" style="fill:#1d1d1b"/><path d="M79.8,211a1.86,1.86,0,0,0,2,2,3.82,3.82,0,0,0,1.61-.3l.18.76a4.7,4.7,0,0,1-1.93.36,2.7,2.7,0,0,1-2.85-2.93c0-1.75,1-3.13,2.72-3.13a2.46,2.46,0,0,1,2.4,2.73,4,4,0,0,1,0,.49Zm3.09-.76a1.5,1.5,0,0,0-1.46-1.71,1.75,1.75,0,0,0-1.62,1.71Z" transform="translate(-0.46)" style="fill:#1d1d1b"/><path d="M5,168.95a3.89,3.89,0,0,1-1.67.34,2.76,2.76,0,0,1-2.89-3,3,3,0,0,1,3.12-3.08,3.53,3.53,0,0,1,1.46.3l-.24.82a2.45,2.45,0,0,0-1.22-.28,2.19,2.19,0,0,0,0,4.37,3,3,0,0,0,1.29-.29Z" transform="translate(-0.46)" style="fill:#1d1d1b"/><path d="M11.43,166.21a2.84,2.84,0,0,1-2.89,3.08,2.76,2.76,0,0,1-2.78-3,2.83,2.83,0,0,1,2.88-3.08A2.75,2.75,0,0,1,11.43,166.21Zm-4.61.06c0,1.27.73,2.23,1.76,2.23s1.76-.95,1.76-2.25c0-1-.49-2.23-1.74-2.23S6.83,165.17,6.83,166.27Z" transform="translate(-0.46)" style="fill:#1d1d1b"/><path d="M12.77,164.93c0-.6,0-1.09,0-1.57h.92l0,.94h0a2,2,0,0,1,1.82-1.07,1.72,1.72,0,0,1,1.64,1.16h0a2.38,2.38,0,0,1,.65-.76,2,2,0,0,1,1.28-.41c.77,0,1.91.5,1.91,2.52v3.42H20v-3.29c0-1.12-.41-1.79-1.26-1.79a1.37,1.37,0,0,0-1.25,1,1.74,1.74,0,0,0-.08.53v3.59h-1v-3.48c0-.92-.41-1.6-1.21-1.6a1.57,1.57,0,0,0-1.39,1.57v3.5h-1Z" transform="translate(-0.46)" style="fill:#1d1d1b"/><path d="M22.78,164.93c0-.6,0-1.09,0-1.57h.92l0,.94h0a2,2,0,0,1,1.82-1.07,1.72,1.72,0,0,1,1.64,1.16h0a2.38,2.38,0,0,1,.65-.76,2,2,0,0,1,1.28-.41c.77,0,1.91.5,1.91,2.52v3.42H30v-3.29c0-1.12-.41-1.79-1.26-1.79a1.37,1.37,0,0,0-1.25,1,1.74,1.74,0,0,0-.08.53v3.59h-1v-3.48c0-.92-.41-1.6-1.21-1.6a1.57,1.57,0,0,0-1.39,1.57v3.5h-1Z" transform="translate(-0.46)" style="fill:#1d1d1b"/><path d="M36,169.16l-.08-.73h0a2.16,2.16,0,0,1-1.78.86,1.65,1.65,0,0,1-1.77-1.67c0-1.4,1.25-2.17,3.49-2.16v-.12A1.2,1.2,0,0,0,34.5,164a2.9,2.9,0,0,0-1.51.43l-.24-.7a3.6,3.6,0,0,1,1.91-.52c1.78,0,2.21,1.21,2.21,2.37v2.17a8.25,8.25,0,0,0,.1,1.39Zm-.16-3c-1.15,0-2.46.18-2.46,1.31a.93.93,0,0,0,1,1,1.44,1.44,0,0,0,1.4-1,1.1,1.1,0,0,0,.06-.34Z" transform="translate(-0.46)" style="fill:#1d1d1b"/><path d="M38.57,164.93c0-.6,0-1.09,0-1.57h.94l.06,1h0a2.14,2.14,0,0,1,1.92-1.09c.8,0,2.05.48,2.05,2.47v3.47H42.45v-3.35c0-.94-.35-1.71-1.34-1.71a1.5,1.5,0,0,0-1.42,1.08,1.52,1.52,0,0,0-.07.49v3.49H38.57Z" transform="translate(-0.46)" style="fill:#1d1d1b"/><path d="M50.24,160.65v7c0,.52,0,1.1,0,1.5h-.95l0-1h0a2.15,2.15,0,0,1-2,1.14c-1.4,0-2.48-1.19-2.48-3,0-1.93,1.19-3.12,2.6-3.12a1.94,1.94,0,0,1,1.75.89h0v-3.47Zm-1.06,5.07a1.85,1.85,0,0,0,0-.44,1.55,1.55,0,0,0-1.52-1.22c-1.09,0-1.74,1-1.74,2.24s.58,2.15,1.71,2.15a1.59,1.59,0,0,0,1.55-1.26,1.83,1.83,0,0,0,0-.46Z" transform="translate(-0.46)" style="fill:#1d1d1b"/><path d="M52.58,166.45a1.86,1.86,0,0,0,2,2,3.82,3.82,0,0,0,1.61-.3l.18.76a4.7,4.7,0,0,1-1.93.36,2.7,2.7,0,0,1-2.85-2.93c0-1.75,1-3.13,2.72-3.13A2.46,2.46,0,0,1,56.7,166a4,4,0,0,1,0,.49Zm3.09-.76A1.5,1.5,0,0,0,54.21,164a1.75,1.75,0,0,0-1.62,1.71Z" transform="translate(-0.46)" style="fill:#1d1d1b"/><path d="M57.86,168.08a2.76,2.76,0,0,0,1.39.42c.77,0,1.13-.38,1.13-.86s-.3-.78-1.08-1.07c-1-.37-1.54-.95-1.54-1.64a1.79,1.79,0,0,1,2-1.7,2.89,2.89,0,0,1,1.43.36l-.26.77a2.26,2.26,0,0,0-1.19-.34c-.62,0-1,.36-1,.79s.35.7,1.1,1c1,.38,1.52.89,1.52,1.75,0,1-.79,1.74-2.17,1.74a3.31,3.31,0,0,1-1.63-.4Z" transform="translate(-0.46)" style="fill:#1d1d1b"/><path d="M82.75,124.11a10.83,10.83,0,0,1,2-.17,3.31,3.31,0,0,1,2.34.66,2,2,0,0,1,.64,1.54,2.12,2.12,0,0,1-1.52,2.06v0a2,2,0,0,1,1.19,1.63,12.86,12.86,0,0,0,.62,2.22H86.94a10.38,10.38,0,0,1-.54-1.93c-.24-1.12-.67-1.54-1.62-1.57h-1v3.5h-1Zm1,3.68h1.07c1.12,0,1.82-.61,1.82-1.54s-.76-1.5-1.86-1.51a4.3,4.3,0,0,0-1,.1Z" transform="translate(-0.46)" style="fill:#1d1d1b"/><path d="M89.8,129.37a1.86,1.86,0,0,0,2,2,3.82,3.82,0,0,0,1.61-.3l.18.76a4.7,4.7,0,0,1-1.93.36,2.7,2.7,0,0,1-2.85-2.93c0-1.75,1-3.13,2.72-3.13a2.46,2.46,0,0,1,2.4,2.73,4,4,0,0,1,0,.49Zm3.09-.76a1.5,1.5,0,0,0-1.46-1.71,1.75,1.75,0,0,0-1.62,1.71Zm.25-4.84-1.46,1.71h-.75L92,123.77Z" transform="translate(-0.46)" style="fill:#1d1d1b"/><path d="M100.23,126.28c0,.42,0,.89,0,1.59v3.37a3.34,3.34,0,0,1-.83,2.65,3.07,3.07,0,0,1-2.11.7,3.74,3.74,0,0,1-1.93-.48l.26-.8a3.27,3.27,0,0,0,1.7.46c1.08,0,1.87-.56,1.87-2v-.65h0a2.07,2.07,0,0,1-1.85,1,2.59,2.59,0,0,1-2.47-2.83,2.79,2.79,0,0,1,2.61-3.08,1.93,1.93,0,0,1,1.81,1h0l0-.87Zm-1.09,2.29a1.5,1.5,0,0,0-.06-.48A1.52,1.52,0,0,0,97.6,127c-1,0-1.73.85-1.73,2.19,0,1.14.58,2.09,1.71,2.09a1.54,1.54,0,0,0,1.46-1.08,1.82,1.82,0,0,0,.08-.56Z" transform="translate(-0.46)" style="fill:#1d1d1b"/><path d="M103,124.65a.65.65,0,0,1-1.31,0,.64.64,0,0,1,.66-.66A.63.63,0,0,1,103,124.65Zm-1.17,7.44v-5.8h1.05v5.8Z" transform="translate(-0.46)" style="fill:#1d1d1b"/><path d="M105.26,129.37a1.86,1.86,0,0,0,2,2,3.82,3.82,0,0,0,1.61-.3l.18.76a4.7,4.7,0,0,1-1.93.36,2.7,2.7,0,0,1-2.85-2.93c0-1.75,1-3.13,2.72-3.13a2.46,2.46,0,0,1,2.4,2.73,4,4,0,0,1,0,.49Zm3.09-.76a1.5,1.5,0,0,0-1.46-1.71,1.75,1.75,0,0,0-1.62,1.71Z" transform="translate(-0.46)" style="fill:#1d1d1b"/><path d="M116.44,132.09l-.08-.73h0a2.16,2.16,0,0,1-1.78.86,1.65,1.65,0,0,1-1.77-1.67c0-1.4,1.25-2.17,3.49-2.16v-.12a1.2,1.2,0,0,0-1.32-1.34,2.9,2.9,0,0,0-1.51.43l-.24-.7a3.59,3.59,0,0,1,1.91-.52c1.78,0,2.21,1.21,2.21,2.37v2.17a8.25,8.25,0,0,0,.1,1.39Zm-.16-3c-1.15,0-2.46.18-2.46,1.31a.93.93,0,0,0,1,1,1.44,1.44,0,0,0,1.4-1,1.1,1.1,0,0,0,.06-.34Z" transform="translate(-0.46)" style="fill:#1d1d1b"/><path d="M123.87,130.5c0,.6,0,1.13,0,1.58H123l-.06-.95h0a2.19,2.19,0,0,1-1.92,1.08c-.91,0-2-.5-2-2.54v-3.39H120v3.21c0,1.1.34,1.85,1.3,1.85a1.49,1.49,0,0,0,1.49-1.5v-3.56h1.05Z" transform="translate(-0.46)" style="fill:#1d1d1b"/><path d="M130.64,123.57v7c0,.52,0,1.1,0,1.5h-.95l0-1h0a2.15,2.15,0,0,1-2,1.14c-1.4,0-2.48-1.19-2.48-3,0-1.93,1.19-3.12,2.6-3.12a1.94,1.94,0,0,1,1.75.89h0v-3.47Zm-1.06,5.07a1.85,1.85,0,0,0,0-.44A1.55,1.55,0,0,0,128,127c-1.09,0-1.74,1-1.74,2.24s.58,2.15,1.71,2.15a1.59,1.59,0,0,0,1.55-1.26,1.82,1.82,0,0,0,0-.46Z" transform="translate(-0.46)" style="fill:#1d1d1b"/><path d="M133.57,124.65a.65.65,0,0,1-1.31,0,.64.64,0,0,1,.66-.66A.63.63,0,0,1,133.57,124.65Zm-1.17,7.44v-5.8h1.05v5.8Z" transform="translate(-0.46)" style="fill:#1d1d1b"/><path d="M140.45,129.13a2.84,2.84,0,0,1-2.89,3.08,2.76,2.76,0,0,1-2.78-3,2.83,2.83,0,0,1,2.88-3.08A2.75,2.75,0,0,1,140.45,129.13Zm-4.61.06c0,1.27.73,2.23,1.76,2.23s1.76-.95,1.76-2.25c0-1-.49-2.23-1.74-2.23S135.85,128.09,135.85,129.19Z" transform="translate(-0.46)" style="fill:#1d1d1b"/><path d="M566,124.11a10.87,10.87,0,0,1,2-.17,3.31,3.31,0,0,1,2.34.66,2,2,0,0,1,.64,1.54,2.12,2.12,0,0,1-1.52,2.06v0a2,2,0,0,1,1.19,1.63,12.83,12.83,0,0,0,.62,2.22h-1.08a10.36,10.36,0,0,1-.54-1.93c-.24-1.12-.67-1.54-1.62-1.57h-1v3.5h-1Zm1,3.68h1.07c1.12,0,1.82-.61,1.82-1.54s-.76-1.5-1.86-1.51a4.3,4.3,0,0,0-1,.1Z" transform="translate(-0.46)" style="fill:#1d1d1b"/><path d="M573.07,129.37a1.86,1.86,0,0,0,2,2,3.82,3.82,0,0,0,1.61-.3l.18.76a4.7,4.7,0,0,1-1.93.36,2.7,2.7,0,0,1-2.85-2.93c0-1.75,1-3.13,2.72-3.13a2.46,2.46,0,0,1,2.4,2.73,4,4,0,0,1,0,.49Zm3.09-.76a1.5,1.5,0,0,0-1.46-1.71,1.75,1.75,0,0,0-1.62,1.71Zm.25-4.85L575,125.49h-.75l1.06-1.72Z" transform="translate(-0.46)" style="fill:#1d1d1b"/><path d="M583.5,126.28c0,.42,0,.89,0,1.6v3.37a3.34,3.34,0,0,1-.83,2.65,3.08,3.08,0,0,1-2.11.7,3.75,3.75,0,0,1-1.93-.48l.26-.8a3.27,3.27,0,0,0,1.7.46c1.08,0,1.87-.56,1.87-2v-.65h0a2.07,2.07,0,0,1-1.85,1,2.59,2.59,0,0,1-2.47-2.83,2.79,2.79,0,0,1,2.61-3.08,1.93,1.93,0,0,1,1.81,1h0l0-.88Zm-1.09,2.29a1.5,1.5,0,0,0-.06-.48,1.52,1.52,0,0,0-1.48-1.12c-1,0-1.73.85-1.73,2.19,0,1.14.58,2.09,1.71,2.09a1.54,1.54,0,0,0,1.46-1.08,1.82,1.82,0,0,0,.08-.56Z" transform="translate(-0.46)" style="fill:#1d1d1b"/><path d="M586.31,124.65a.65.65,0,0,1-1.31,0,.64.64,0,0,1,.66-.66A.63.63,0,0,1,586.31,124.65Zm-1.17,7.44v-5.8h1.05v5.8Z" transform="translate(-0.46)" style="fill:#1d1d1b"/><path d="M588.53,129.37a1.86,1.86,0,0,0,2,2,3.82,3.82,0,0,0,1.61-.3l.18.76a4.7,4.7,0,0,1-1.93.36,2.7,2.7,0,0,1-2.85-2.93c0-1.75,1-3.13,2.72-3.13a2.46,2.46,0,0,1,2.4,2.73,4,4,0,0,1,0,.49Zm3.09-.76a1.5,1.5,0,0,0-1.46-1.71,1.75,1.75,0,0,0-1.62,1.71Z" transform="translate(-0.46)" style="fill:#1d1d1b"/><path d="M596.91,126.28l1.14,3.26a15.06,15.06,0,0,1,.47,1.49h0c.13-.48.3-1,.49-1.49l1.13-3.26h1.1l-2.28,5.8h-1l-2.21-5.8Z" transform="translate(-0.46)" style="fill:#1d1d1b"/><path d="M603.45,124.65a.65.65,0,0,1-1.31,0,.64.64,0,0,1,.66-.66A.63.63,0,0,1,603.45,124.65Zm-1.17,7.44v-5.8h1.05v5.8Z" transform="translate(-0.46)" style="fill:#1d1d1b"/><path d="M610.09,123.57v7c0,.52,0,1.1,0,1.5h-.95l0-1h0a2.15,2.15,0,0,1-2,1.14c-1.4,0-2.48-1.19-2.48-3,0-1.93,1.19-3.12,2.6-3.12A1.94,1.94,0,0,1,609,127h0v-3.47ZM609,128.64a1.85,1.85,0,0,0,0-.44,1.55,1.55,0,0,0-1.52-1.22c-1.09,0-1.74,1-1.74,2.24s.58,2.15,1.71,2.15a1.59,1.59,0,0,0,1.55-1.26,1.83,1.83,0,0,0,0-.46Z" transform="translate(-0.46)" style="fill:#1d1d1b"/><path d="M612.43,129.37a1.86,1.86,0,0,0,2,2,3.82,3.82,0,0,0,1.61-.3l.18.76a4.7,4.7,0,0,1-1.93.36,2.7,2.7,0,0,1-2.85-2.93c0-1.75,1-3.13,2.72-3.13a2.46,2.46,0,0,1,2.4,2.73,4,4,0,0,1,0,.49Zm3.09-.76a1.5,1.5,0,0,0-1.46-1.71,1.75,1.75,0,0,0-1.62,1.71Zm.25-4.85-1.46,1.72h-.75l1.06-1.72Z" transform="translate(-0.46)" style="fill:#1d1d1b"/><path d="M623.11,129.13a2.84,2.84,0,0,1-2.89,3.08,2.76,2.76,0,0,1-2.78-3,2.83,2.83,0,0,1,2.88-3.08A2.75,2.75,0,0,1,623.11,129.13Zm-4.61.06c0,1.27.73,2.23,1.76,2.23s1.76-.95,1.76-2.25c0-1-.49-2.23-1.74-2.23S618.51,128.09,618.51,129.19Z" transform="translate(-0.46)" style="fill:#1d1d1b"/><path d="M282.35,196.82c-50,0-74.12,104.2-29.61,104.2" transform="translate(-0.46)" style="fill:none;stroke:#1d1d1b;stroke-miterlimit:10"/></g></g></svg>